<svg width="28" height="28" viewBox="0 0 28 28" fill="none" xmlns="http://www.w3.org/2000/svg">
<path d="M14 27.1523C6.77798 27.1523 0.923828 21.2981 0.923828 14.0761C0.923828 6.85415 6.77798 1 14 1C21.222 1 27.0761 6.85415 27.0761 14.0761C27.0761 21.2981 21.222 27.1523 14 27.1523Z" stroke="white" stroke-width="0.43" stroke-miterlimit="10"/>
<path d="M12.7328 20.5843V14.0537V13.5537H12.2328H11.2637V12.1557H12.2328H12.7328V11.6557V9.77001C12.7328 8.96941 12.9445 8.45338 13.304 8.12732C13.6734 7.79234 14.2903 7.57373 15.2781 7.57373H16.7314V9.02797H15.7059C15.3909 9.02797 15.0221 9.08809 14.7803 9.40275C14.5705 9.67581 14.553 10.0324 14.553 10.3048V11.6501V12.1501H15.053H16.6854L16.5652 13.5143H15.053H14.553V14.0143V20.5843H12.7328Z" fill="white" stroke="white"/>
</svg>
