<svg width="42" height="43" viewBox="0 0 42 43" fill="none" xmlns="http://www.w3.org/2000/svg">
<path d="M38.15 27.8513C38.94 25.6413 38.93 23.3013 38.81 20.9813C38.65 17.8813 38.39 14.7913 38.11 11.7013C37.93 9.73126 36.5 8.38126 34.73 8.38126C34.09 8.38126 33.48 8.57126 32.96 8.89126C33.58 6.71126 32.76 5.34126 29.81 4.29126C29.8 4.29126 29.79 4.27126 29.79 4.26126C29.85 2.68126 29.47 1.71126 28.06 0.911261C26.63 0.0912606 25.24 -0.00873935 23.97 1.62126C23.97 1.63126 23.62 2.05126 23.62 2.04126C23.43 1.15126 22.69 0.591261 22.1 0.331261C21.1 -0.108739 20.18 -0.108739 19.36 0.321261C19.1 0.381261 18.84 0.481261 18.58 0.611261C18 0.891261 17.28 1.48126 17.12 2.38126C17.12 2.40126 16.77 1.99126 16.76 1.97126C15.43 0.391261 14.04 0.541261 12.64 1.42126C11.27 2.28126 10.92 3.26126 11.04 4.84126C11.04 4.85126 11.04 4.87126 11.02 4.87126C8.34002 5.95126 7.48003 7.23126 7.91003 9.11126C7.41003 8.85126 6.84003 8.71126 6.25003 8.74126C4.48003 8.81126 3.10003 10.2113 3.00003 12.1813C2.84003 15.2813 2.70003 18.3813 2.66003 21.4813C2.63003 23.8013 2.71003 26.1313 3.59003 28.3113L0.540039 33.3913L15.27 42.2313L18.62 36.6513C19.38 36.4513 20.12 36.1413 20.84 35.7413C21.69 36.2113 22.56 36.5613 23.45 36.7613L27.02 42.2113L41.39 32.8013L38.15 27.8513ZM28.23 7.39126C28.92 6.24126 29.64 5.93126 30.54 6.38126C31.49 6.85126 31.75 7.60126 31.09 8.80126C30.54 9.80126 29.97 10.8013 29.39 11.7913C28.73 10.7813 28.07 9.77126 27.4 8.75126C27.67 8.29126 27.95 7.84126 28.22 7.38126L28.23 7.39126ZM31.12 12.7813C31.09 13.1613 31.06 13.5813 31.02 14.0713C31.02 14.1013 30.98 14.1113 30.96 14.0913C30.76 13.8113 30.61 13.6113 30.47 13.4313C30.66 13.1713 30.87 12.9413 31.12 12.7913V12.7813ZM24.76 3.36126C25.38 2.33126 26.13 2.00126 26.94 2.33126C28.03 2.78126 28.31 3.80126 27.62 4.96126C27.19 5.68126 26.76 6.40126 26.33 7.11126C25.67 6.09126 25 5.08126 24.33 4.07126C24.47 3.83126 24.61 3.60126 24.76 3.36126ZM18.94 34.6913C18.6 34.8113 18.26 34.9113 17.89 34.9913L16.94 36.5813L16.71 36.9613L14.49 40.6513L2.32004 33.3513L4.38004 29.9213L4.67004 29.4513L5.41003 28.2213C5.28003 27.9413 5.16003 27.6513 5.06003 27.3513C4.95003 27.0313 4.86004 26.7013 4.79004 26.3613C4.65004 25.7013 4.57003 25.0213 4.56003 24.3213C4.52003 20.3313 4.63004 16.3413 4.73004 12.3613C4.76004 11.2713 5.45002 10.5613 6.30002 10.5113C7.05002 10.4713 7.66002 10.8713 7.96002 11.6013C7.74002 11.7113 7.53003 11.8713 7.28003 12.1613C6.04003 13.5513 5.91002 15.6113 6.90002 17.1913C9.79002 21.7913 12.74 26.3513 15.74 30.8713C16.33 31.7513 16.98 32.5913 17.72 33.3413C18.19 33.8113 18.66 34.2413 19.14 34.6213C19.07 34.6513 19 34.6813 18.93 34.7013L18.94 34.6913ZM25.39 36.9913L25.15 36.6213L24.14 35.0713C23.78 35.0113 23.42 34.9213 23.08 34.8213C22.66 34.6913 22.26 34.5313 21.88 34.3513C20.16 33.5213 18.77 32.1513 17.61 30.4713C16.04 28.1913 14.56 25.8513 13.05 23.5313C11.46 21.1013 9.86004 18.6713 8.29004 16.2313C8.02004 15.8113 7.58004 15.2013 7.67004 14.4713C7.74004 13.9413 8.02004 13.6313 8.42004 13.3513C8.78004 13.1013 9.55002 13.1513 9.99002 13.3713C10.47 13.6113 10.83 14.1513 11.15 14.6213C11.9 15.7313 12.62 16.8613 13.36 17.9813C13.72 18.5313 14.08 19.0713 14.44 19.6113C14.83 20.1913 15.57 21.7813 16.46 21.1613C17.27 20.5913 16.2 19.3013 15.86 18.7813C15.5 18.2313 15.14 17.6913 14.79 17.1413C13.16 14.5813 11.49 12.0413 9.92004 9.44126C9.21004 8.26126 9.44004 7.51126 10.38 7.00126C11.27 6.52126 11.99 6.80126 12.73 7.92126C14.64 10.8413 16.55 13.7513 18.46 16.6713C18.73 17.0813 18.89 17.4213 19.39 17.5913C19.76 17.7113 20.13 17.6513 20.27 17.2613C20.51 16.6213 20.32 16.2813 19.98 15.7613C17.73 12.3313 15.48 8.90126 13.24 5.46126C12.51 4.33126 12.74 3.29126 13.82 2.81126C14.62 2.45126 15.38 2.75126 16.04 3.75126C18.33 7.23126 20.61 10.7213 22.89 14.2213C23.26 14.7913 23.71 15.2713 24.37 14.8013C25 14.3613 24.64 13.7813 24.31 13.2713C22.54 10.5813 20.79 7.90126 19.03 5.20126C18.8 4.84126 18.56 4.47126 18.44 4.06126C18.16 3.15126 18.79 2.20126 19.72 2.04126C20.68 1.87126 21.15 2.44126 21.59 3.13126C24.58 7.71126 27.56 12.2913 30.59 16.8513C30.87 17.2713 31.46 17.7613 31.89 17.7513C32.69 17.7313 32.61 16.9013 32.66 16.3013C32.78 14.8413 32.85 13.3713 33 11.9113C33.12 10.7813 33.82 10.1313 34.76 10.1413C35.61 10.1513 36.33 10.8413 36.4 11.9313C36.65 15.9113 36.93 19.8913 37.04 23.8813C37.06 24.5813 37.01 25.2713 36.89 25.9313C36.83 26.2713 36.75 26.6013 36.66 26.9313C36.57 27.2313 36.47 27.5313 36.35 27.8113L37.13 29.0113L37.43 29.4713L39.62 32.8113L27.74 40.5813L25.38 36.9813L25.39 36.9913Z" fill="#00B1E2"/>
<path d="M28.6801 18.6714C27.3801 18.6714 26.1901 19.3814 25.5001 20.5314C24.8101 19.3914 23.6101 18.6714 22.3201 18.6714C20.7401 18.6714 19.3201 19.7314 18.7801 21.3114C18.6301 21.7514 18.55 22.2114 18.55 22.6714C18.55 23.1314 18.6201 23.5714 18.7601 23.9914C18.7801 24.0414 18.7901 24.0814 18.8101 24.1214L19.3901 23.8514L18.8101 24.1314C18.8101 24.1314 18.8301 24.1614 18.8401 24.1914C19.0001 24.6114 19.2101 24.9814 19.4601 25.2914C19.5801 25.4414 19.72 25.5814 19.86 25.7214L25.5101 31.7014L31.36 25.5014C31.75 25.0914 32.0501 24.5814 32.2301 24.0314C32.3801 23.6014 32.4501 23.1414 32.4501 22.6814C32.4501 20.4714 30.7601 18.6814 28.6801 18.6814V18.6714ZM31.0101 23.6114C30.8801 23.9814 30.6801 24.3314 30.4001 24.6214L25.5101 29.8014L20.7801 24.7914L20.7501 24.7614C20.6501 24.6714 20.5501 24.5614 20.4701 24.4614C20.3001 24.2614 20.16 24.0014 20.05 23.7214C20.03 23.6714 20.0101 23.6214 19.9801 23.5714C19.8901 23.2814 19.8401 22.9814 19.8401 22.6714C19.8401 22.3614 19.8901 22.0414 20.0001 21.7314C20.3601 20.6714 21.2901 19.9614 22.3201 19.9614C23.2801 19.9614 24.1601 20.5814 24.5701 21.5314C24.7301 21.9014 25.0901 22.1514 25.5001 22.1514C25.9101 22.1514 26.2701 21.9114 26.4301 21.5314C26.8401 20.5714 27.7201 19.9614 28.6801 19.9614C30.0501 19.9614 31.1601 21.1814 31.1601 22.6714C31.1601 22.9914 31.1101 23.3114 31.0101 23.6114Z" fill="#00B1E2"/>
</svg>
