<svg width="28" height="28" viewBox="0 0 28 28" fill="none" xmlns="http://www.w3.org/2000/svg">
<path d="M14.0761 27.1523C6.85414 27.1523 1 21.2981 1 14.0761C1 6.85414 6.85414 1 14.0761 1C21.2981 1 27.1523 6.85414 27.1523 14.0761C27.1523 21.2981 21.2981 27.1523 14.0761 27.1523Z" stroke="white" stroke-width="0.43" stroke-miterlimit="10"/>
<path d="M18.9101 9.24209L18.9101 9.24206L18.9055 9.23764C18.6379 8.97672 18.3734 8.7961 18.0059 8.65675C17.7262 8.54536 17.334 8.4343 16.6666 8.40385C15.9845 8.36946 15.7762 8.36387 14.0758 8.36387C12.4334 8.36387 12.1823 8.37446 11.5548 8.4009C11.533 8.40182 11.5108 8.40276 11.488 8.40371L11.488 8.40371L11.4863 8.40379C10.8086 8.43459 10.4193 8.55415 10.1514 8.65464L10.1504 8.655C9.785 8.79289 9.51653 8.96717 9.2416 9.24209L9.24157 9.24206L9.23716 9.24659C8.97623 9.51421 8.79561 9.77876 8.65626 10.1463C8.54487 10.426 8.43382 10.8182 8.40336 11.4855C8.36897 12.1677 8.36339 12.3816 8.36339 14.0763C8.36339 15.7186 8.37397 15.9698 8.40042 16.5972C8.40134 16.6191 8.40227 16.6413 8.40323 16.6641L8.40331 16.6658C8.43411 17.3435 8.55367 17.7328 8.65415 18.0008L8.65452 18.0017C8.7924 18.3671 8.96667 18.6356 9.2416 18.9105L9.24157 18.9106L9.24611 18.915C9.51372 19.1759 9.77827 19.3565 10.1458 19.4959C10.4255 19.6073 10.8177 19.7183 11.485 19.7488C12.1672 19.7832 12.3811 19.7888 14.0758 19.7888C15.7181 19.7888 15.9693 19.7782 16.5967 19.7517C16.6185 19.7508 16.6408 19.7499 16.6636 19.7489L16.6653 19.7488C17.343 19.718 17.7323 19.5985 18.0003 19.498L18.0013 19.4976C18.3628 19.3612 18.6401 19.1875 18.9145 18.906C19.1754 18.6384 19.356 18.3739 19.4954 18.0064C19.6068 17.7267 19.7178 17.3345 19.7483 16.6672C19.7827 15.9849 19.7883 15.7711 19.7883 14.0763C19.7883 12.434 19.7777 12.1828 19.7512 11.5554C19.7503 11.5336 19.7494 11.5113 19.7484 11.4885L19.7483 11.4868C19.7175 10.8091 19.598 10.4198 19.4975 10.1518L19.4971 10.1509C19.3593 9.78549 19.185 9.51702 18.9101 9.24209ZM11.4735 8.26016L11.4735 8.26017L11.4775 8.25998C12.1455 8.22685 12.349 8.22119 14.0758 8.22119C15.7454 8.22119 15.9967 8.23169 16.617 8.25761C16.6363 8.25841 16.656 8.25923 16.676 8.26007C17.304 8.29163 17.7112 8.38934 18.0594 8.52468C18.4187 8.66555 18.7129 8.84365 19.0135 9.14425C19.3133 9.44405 19.4913 9.73751 19.632 10.0955C19.7646 10.45 19.8661 10.8587 19.892 11.4797L19.892 11.4797L19.8922 11.4836C19.9253 12.1516 19.931 12.3551 19.931 14.0819C19.931 15.7514 19.9204 16.0028 19.8945 16.623C19.8937 16.643 19.8928 16.6634 19.892 16.6842C19.8659 17.311 19.7684 17.7175 19.633 18.0657C19.4922 18.4249 19.3141 18.7191 19.0135 19.0196C18.713 19.3202 18.4188 19.4983 18.0596 19.6391C17.7081 19.7758 17.3011 19.8778 16.6781 19.9037L16.6781 19.9037L16.6742 19.9039C16.0062 19.937 15.8027 19.9427 14.0758 19.9427C12.4063 19.9427 12.1549 19.9322 11.5347 19.9063L11.4757 19.9038C10.8476 19.8723 10.4404 19.7745 10.0921 19.6392C9.73288 19.4983 9.43869 19.3202 9.13814 19.0196C8.83833 18.7198 8.66038 18.4264 8.51968 18.0684C8.38708 17.7139 8.28555 17.3052 8.25967 16.6842L8.25969 16.6842L8.25949 16.6803C8.22637 16.0123 8.2207 15.8088 8.2207 14.0819C8.2207 12.355 8.22637 12.146 8.25948 11.4838L8.2595 11.4838L8.25967 11.4797C8.28578 10.853 8.38326 10.4465 8.51857 10.0983C8.65945 9.73905 8.83755 9.44484 9.13813 9.14425C9.43873 8.84366 9.73294 8.66556 10.0922 8.52469C10.4436 8.3881 10.8506 8.28611 11.4735 8.26016Z" fill="white" stroke="white"/>
<path d="M11.3105 14.0763C11.3105 12.5512 12.5502 11.3115 14.0754 11.3115C15.6005 11.3115 16.8402 12.5512 16.8402 14.0763C16.8402 15.6015 15.6005 16.8411 14.0754 16.8411C12.5502 16.8411 11.3105 15.6015 11.3105 14.0763ZM11.4589 14.0763C11.4589 15.5168 12.6275 16.6928 14.0754 16.6928C15.5167 16.6928 16.6919 15.5177 16.6919 14.0763C16.6919 12.635 15.5167 11.4598 14.0754 11.4598C12.634 11.4598 11.4589 12.635 11.4589 14.0763Z" fill="white" stroke="white"/>
<path d="M17.7303 10.682C17.7303 10.8281 17.6108 10.9476 17.4648 10.9476C17.3187 10.9476 17.1992 10.8281 17.1992 10.682C17.1992 10.536 17.3187 10.4165 17.4648 10.4165C17.6108 10.4165 17.7303 10.536 17.7303 10.682Z" fill="white" stroke="white"/>
</svg>
