<svg width="27" height="28" viewBox="0 0 27 28" fill="none" xmlns="http://www.w3.org/2000/svg">
<path d="M13.54 27.1523C6.31802 27.1523 0.463867 21.2981 0.463867 14.0761C0.463867 6.85414 6.31802 1 13.54 1C20.762 1 26.6161 6.85414 26.6161 14.0761C26.6161 21.2981 20.762 27.1523 13.54 27.1523Z" stroke="white" stroke-width="0.43" stroke-miterlimit="10"/>
<path d="M8.45605 18.7321V11.981H9.85401V18.7321H8.45605Z" fill="white" stroke="white"/>
<path d="M10.0616 9.03817C10.0616 9.55395 9.64556 9.96792 9.14312 9.96792C8.64068 9.96792 8.22461 9.55394 8.22461 9.03817C8.22461 8.52239 8.64069 8.1084 9.14312 8.1084C9.64556 8.1084 10.0616 8.52238 10.0616 9.03817Z" fill="white" stroke="white"/>
<path d="M13.6929 12.5339L14.6315 12.7709C14.6328 12.7716 14.6327 12.7717 14.6327 12.7717L14.6325 12.7721L14.6321 12.7728L14.6316 12.7738C14.6313 12.7743 14.6311 12.7746 14.6312 12.7746L14.6332 12.771C14.6358 12.7665 14.641 12.7578 14.6487 12.7456C14.6643 12.7209 14.69 12.6822 14.7262 12.6341C14.799 12.5374 14.9121 12.4056 15.0678 12.2736C15.3756 12.0127 15.8488 11.7505 16.5289 11.7505C17.2493 11.7505 17.8134 11.9681 18.1981 12.3609C18.5831 12.754 18.849 13.3846 18.849 14.3295V18.738H17.4623V15.1683C17.4623 14.5614 17.3497 14.0032 17.0444 13.5856C16.7191 13.1405 16.2303 12.9289 15.6564 12.9289C15.0548 12.9289 14.5353 13.1368 14.1777 13.5713C13.8327 13.9904 13.6929 14.5545 13.6929 15.1683V18.738H12.3906V11.9869H13.6929V12.5339Z" fill="white" stroke="white"/>
</svg>
