<svg width="27" height="28" viewBox="0 0 27 28" fill="none" xmlns="http://www.w3.org/2000/svg">
<path d="M13.5361 27.1523C6.3141 27.1523 0.459961 21.2981 0.459961 14.0761C0.459961 6.85413 6.3141 1 13.5361 1C20.7581 1 26.6122 6.85413 26.6122 14.0761C26.6122 21.2981 20.7581 27.1523 13.5361 27.1523Z" stroke="white" stroke-width="0.43" stroke-miterlimit="10"/>
<path d="M20.9455 13.4525L20.9543 13.8058C20.8581 17.5919 17.7344 20.6405 13.8856 20.6405C12.6432 20.6405 11.4818 20.3249 10.4675 19.7678L10.2796 19.6646L10.0752 19.7296L6.82328 20.7641L7.86909 17.6699L7.94363 17.4493L7.82284 17.2503C7.18167 16.194 6.80902 14.9548 6.80902 13.6314C6.80902 13.5826 6.81024 13.534 6.81167 13.4782L6.81174 13.4756C6.81302 13.4257 6.81446 13.3696 6.81463 13.3111C6.98807 9.5862 10.0367 6.6167 13.88 6.6167C17.7263 6.6167 20.851 9.66231 20.9455 13.4525ZM7.46215 19.5224L7.14481 20.4609L8.08831 20.1587L10.3086 19.4476C11.2959 20.0497 12.4412 20.4074 13.6702 20.444L13.679 20.4527H13.8856C17.6646 20.4527 20.752 17.4015 20.752 13.637C20.752 13.4594 20.7462 13.2801 20.7275 13.0966C20.4506 9.58284 17.4403 6.81568 13.8856 6.81568C10.3316 6.81568 7.39184 9.51343 7.0557 12.9661C7.03139 13.1861 7.01925 13.406 7.01925 13.6314C7.01925 15.0325 7.4466 16.3326 8.17477 17.4148L7.46215 19.5224Z" fill="white" stroke="white"/>
<path d="M17.1285 15.6011L17.226 15.6484C17.2137 15.7596 17.1837 15.9058 17.1251 16.0648L17.125 16.0647L17.1224 16.0722C17.1039 16.125 16.9974 16.2608 16.7683 16.4083C16.6672 16.4735 16.5628 16.5274 16.4709 16.5652C16.4253 16.5839 16.3859 16.5974 16.3544 16.6062C16.3389 16.6105 16.3264 16.6134 16.3171 16.6152C16.3076 16.6171 16.3031 16.6175 16.3031 16.6175L16.3031 16.6174L16.2949 16.6182C16.1924 16.6285 16.0587 16.662 16.0256 16.6703C16.0214 16.6713 16.0188 16.672 16.0181 16.6721C15.9868 16.6786 15.9465 16.6854 15.8604 16.6771C15.6561 16.6575 15.2392 16.5584 14.2968 16.1938C12.7298 15.5806 11.6789 14.0591 11.403 13.6597C11.3757 13.6202 11.356 13.5916 11.3441 13.5761L11.3436 13.5754C11.2759 13.4868 10.9212 13.015 10.7629 12.4636C10.7153 12.2971 10.6865 12.131 10.6865 11.9765C10.6865 11.3317 10.9843 11.012 11.1631 10.8201C11.1775 10.8047 11.1912 10.79 11.2038 10.7761C11.2591 10.7153 11.3156 10.709 11.3292 10.709C11.371 10.709 11.4162 10.7118 11.4776 10.7162C11.4812 10.7164 11.4849 10.7167 11.4886 10.717C11.531 10.72 11.5848 10.7238 11.6401 10.7253L11.6412 10.7277C11.7132 10.8949 11.832 11.1813 11.9444 11.4523C11.9522 11.4712 11.9601 11.4901 11.9678 11.5088L11.9792 11.5361C12.0688 11.7523 12.159 11.9698 12.2051 12.0734C12.1873 12.1092 12.1777 12.1279 12.1667 12.1458C12.1512 12.1654 12.1321 12.1901 12.1118 12.2186C12.0608 12.2763 12.0227 12.3219 11.9902 12.3607C11.9462 12.4133 11.9124 12.4536 11.8707 12.4954L11.8653 12.5008L11.8601 12.5063C11.8583 12.5083 11.8558 12.5108 11.8527 12.514C11.8164 12.5513 11.7011 12.6701 11.6419 12.8307C11.5584 13.0568 11.6008 13.2823 11.7121 13.4756C11.8293 13.6793 12.2328 14.3359 12.8445 14.8731C13.5129 15.4668 14.1158 15.7193 14.3603 15.8216C14.3982 15.8375 14.4275 15.8497 14.4471 15.8591C14.5712 15.9208 14.7514 15.9918 14.96 15.9663C15.1906 15.9381 15.3457 15.8079 15.4424 15.7015L15.4426 15.7016L15.4509 15.6919C15.4597 15.6818 15.4713 15.6684 15.4852 15.6523C15.5901 15.5316 15.8266 15.2593 15.9835 15.0544C16.0189 15.0698 16.063 15.0896 16.1143 15.1132C16.2226 15.163 16.3552 15.2259 16.4904 15.2909C16.6822 15.383 16.8714 15.4756 17.0009 15.5389C17.0554 15.5656 17.0994 15.587 17.1285 15.6011ZM15.8499 15.0046C15.8495 15.0046 15.8494 15.0045 15.8494 15.0045C15.8494 15.0045 15.8495 15.0045 15.8497 15.0046C15.8497 15.0046 15.8498 15.0046 15.8499 15.0046Z" fill="white" stroke="white"/>
</svg>
