<svg width="474" height="379" viewBox="0 0 474 379" fill="none" xmlns="http://www.w3.org/2000/svg">
<path d="M25.6896 361.669V352.942H28.6385C29.3232 352.942 29.8828 353.066 30.3175 353.313C30.755 353.557 31.0788 353.888 31.2891 354.306C31.4993 354.723 31.6044 355.189 31.6044 355.704C31.6044 356.218 31.4993 356.685 31.2891 357.106C31.0817 357.526 30.7607 357.861 30.326 358.111C29.8913 358.358 29.3345 358.482 28.6555 358.482H26.5419V357.544H28.6214C29.0902 357.544 29.4666 357.463 29.7507 357.302C30.0348 357.14 30.2408 356.921 30.3686 356.645C30.4993 356.367 30.5646 356.053 30.5646 355.704C30.5646 355.354 30.4993 355.042 30.3686 354.766C30.2408 354.49 30.0334 354.275 29.7464 354.118C29.4595 353.959 29.0788 353.88 28.6044 353.88H26.7464V361.669H25.6896ZM32.7741 361.669H31.6662L34.8707 352.942H35.9616L39.1662 361.669H38.0582L35.4503 354.323H35.3821L32.7741 361.669ZM33.1832 358.26H37.6491V359.198H33.1832V358.26ZM46.0813 355.669C45.9876 355.383 45.864 355.125 45.7106 354.898C45.56 354.668 45.3796 354.472 45.1694 354.31C44.962 354.148 44.7262 354.025 44.462 353.939C44.1978 353.854 43.908 353.811 43.5927 353.811C43.0756 353.811 42.6055 353.945 42.1822 354.212C41.7589 354.479 41.4222 354.873 41.1722 355.392C40.9222 355.912 40.7972 356.55 40.7972 357.306C40.7972 358.061 40.9237 358.699 41.1765 359.219C41.4293 359.739 41.7717 360.133 42.2035 360.4C42.6353 360.667 43.1211 360.8 43.6609 360.8C44.1609 360.8 44.6012 360.694 44.9819 360.481C45.3654 360.265 45.6637 359.961 45.8768 359.569C46.0927 359.174 46.2006 358.709 46.2006 358.175L46.5245 358.243H43.8995V357.306H47.2234V358.243C47.2234 358.962 47.07 359.587 46.7631 360.118C46.4592 360.65 46.0387 361.061 45.5018 361.354C44.9677 361.644 44.354 361.789 43.6609 361.789C42.8881 361.789 42.2092 361.607 41.6239 361.243C41.0415 360.88 40.587 360.363 40.2603 359.692C39.9364 359.022 39.7745 358.226 39.7745 357.306C39.7745 356.615 39.8668 355.995 40.0515 355.444C40.239 354.89 40.5032 354.418 40.8441 354.029C41.185 353.64 41.5884 353.341 42.0543 353.134C42.5202 352.927 43.033 352.823 43.5927 352.823C44.0529 352.823 44.4819 352.892 44.8796 353.032C45.2802 353.168 45.6367 353.363 45.9492 353.615C46.2646 353.865 46.5273 354.165 46.7376 354.515C46.9478 354.861 47.0927 355.246 47.1722 355.669H46.0813ZM49.0334 361.669V352.942H54.3004V353.88H50.0902V356.829H54.0277V357.766H50.0902V360.732H54.3686V361.669H49.0334ZM66.5007 352.942V361.669H65.478L60.7223 354.817H60.6371V361.669H59.5803V352.942H60.603L65.3757 359.811H65.4609V352.942H66.5007ZM75.979 357.306C75.979 358.226 75.8129 359.022 75.4805 359.692C75.1481 360.363 74.6921 360.88 74.1126 361.243C73.533 361.607 72.8711 361.789 72.1268 361.789C71.3825 361.789 70.7205 361.607 70.141 361.243C69.5614 360.88 69.1055 360.363 68.7731 359.692C68.4407 359.022 68.2745 358.226 68.2745 357.306C68.2745 356.385 68.4407 355.59 68.7731 354.919C69.1055 354.249 69.5614 353.732 70.141 353.368C70.7205 353.005 71.3825 352.823 72.1268 352.823C72.8711 352.823 73.533 353.005 74.1126 353.368C74.6921 353.732 75.1481 354.249 75.4805 354.919C75.8129 355.59 75.979 356.385 75.979 357.306ZM74.9563 357.306C74.9563 356.55 74.8299 355.912 74.5771 355.392C74.3271 354.873 73.9876 354.479 73.5586 354.212C73.1325 353.945 72.6552 353.811 72.1268 353.811C71.5984 353.811 71.1197 353.945 70.6907 354.212C70.2646 354.479 69.9251 354.873 69.6722 355.392C69.4222 355.912 69.2972 356.55 69.2972 357.306C69.2972 358.061 69.4222 358.699 69.6722 359.219C69.9251 359.739 70.2646 360.133 70.6907 360.4C71.1197 360.667 71.5984 360.8 72.1268 360.8C72.6552 360.8 73.1325 360.667 73.5586 360.4C73.9876 360.133 74.3271 359.739 74.5771 359.219C74.8299 358.699 74.9563 358.061 74.9563 357.306ZM76.9155 353.88V352.942H83.4609V353.88H80.7166V361.669H79.6598V353.88H76.9155ZM88.467 361.669V352.942H93.6999V353.88H89.5238V356.829H93.3079V357.766H89.5238V361.669H88.467ZM102.874 357.306C102.874 358.226 102.707 359.022 102.375 359.692C102.043 360.363 101.587 360.88 101.007 361.243C100.428 361.607 99.7656 361.789 99.0213 361.789C98.277 361.789 97.6151 361.607 97.0355 361.243C96.456 360.88 96 360.363 95.6676 359.692C95.3352 359.022 95.169 358.226 95.169 357.306C95.169 356.385 95.3352 355.59 95.6676 354.919C96 354.249 96.456 353.732 97.0355 353.368C97.6151 353.005 98.277 352.823 99.0213 352.823C99.7656 352.823 100.428 353.005 101.007 353.368C101.587 353.732 102.043 354.249 102.375 354.919C102.707 355.59 102.874 356.385 102.874 357.306ZM101.851 357.306C101.851 356.55 101.724 355.912 101.472 355.392C101.222 354.873 100.882 354.479 100.453 354.212C100.027 353.945 99.5497 353.811 99.0213 353.811C98.4929 353.811 98.0142 353.945 97.5852 354.212C97.1591 354.479 96.8196 354.873 96.5668 355.392C96.3168 355.912 96.1918 356.55 96.1918 357.306C96.1918 358.061 96.3168 358.699 96.5668 359.219C96.8196 359.739 97.1591 360.133 97.5852 360.4C98.0142 360.667 98.4929 360.8 99.0213 360.8C99.5497 360.8 100.027 360.667 100.453 360.4C100.882 360.133 101.222 359.739 101.472 359.219C101.724 358.699 101.851 358.061 101.851 357.306ZM110.378 352.942H111.435V358.721C111.435 359.317 111.294 359.85 111.013 360.319C110.734 360.784 110.341 361.152 109.832 361.422C109.324 361.689 108.727 361.823 108.043 361.823C107.358 361.823 106.761 361.689 106.253 361.422C105.744 361.152 105.349 360.784 105.068 360.319C104.79 359.85 104.651 359.317 104.651 358.721V352.942H105.707V358.635C105.707 359.061 105.801 359.441 105.989 359.773C106.176 360.103 106.443 360.363 106.79 360.553C107.139 360.74 107.557 360.834 108.043 360.834C108.528 360.834 108.946 360.74 109.295 360.553C109.645 360.363 109.912 360.103 110.097 359.773C110.284 359.441 110.378 359.061 110.378 358.635V352.942ZM120.466 352.942V361.669H119.443L114.687 354.817H114.602V361.669H113.545V352.942H114.568L119.341 359.811H119.426V352.942H120.466ZM125.273 361.669H122.58V352.942H125.393C126.239 352.942 126.964 353.117 127.566 353.466C128.168 353.813 128.63 354.311 128.951 354.962C129.272 355.61 129.433 356.385 129.433 357.289C129.433 358.198 129.271 358.981 128.947 359.637C128.623 360.29 128.151 360.793 127.532 361.145C126.913 361.495 126.16 361.669 125.273 361.669ZM123.637 360.732H125.205C125.927 360.732 126.525 360.593 126.999 360.314C127.474 360.036 127.827 359.64 128.06 359.125C128.293 358.611 128.41 357.999 128.41 357.289C128.41 356.584 128.295 355.978 128.065 355.469C127.835 354.958 127.491 354.566 127.033 354.293C126.576 354.017 126.006 353.88 125.325 353.88H123.637V360.732Z" fill="#00B1E2"/>
<path d="M22.5705 361.669V352.942H25.5194C26.204 352.942 26.7637 353.066 27.1983 353.313C27.6358 353.557 27.9597 353.888 28.1699 354.306C28.3801 354.723 28.4853 355.189 28.4853 355.704C28.4853 356.218 28.3801 356.685 28.1699 357.106C27.9625 357.526 27.6415 357.861 27.2069 358.111C26.7722 358.358 26.2154 358.482 25.5364 358.482H23.4228V357.544H25.5023C25.9711 357.544 26.3475 357.463 26.6316 357.302C26.9157 357.14 27.1216 356.921 27.2495 356.645C27.3801 356.367 27.4455 356.053 27.4455 355.704C27.4455 355.354 27.3801 355.042 27.2495 354.766C27.1216 354.49 26.9142 354.275 26.6273 354.118C26.3404 353.959 25.9597 353.88 25.4853 353.88H23.6273V361.669H22.5705ZM29.655 361.669H28.5471L31.7516 352.942H32.8425L36.0471 361.669H34.9391L32.3311 354.323H32.263L29.655 361.669ZM30.0641 358.26H34.53V359.198H30.0641V358.26ZM42.9622 355.669C42.8684 355.383 42.7449 355.125 42.5914 354.898C42.4409 354.668 42.2605 354.472 42.0502 354.31C41.8429 354.148 41.6071 354.025 41.3429 353.939C41.0787 353.854 40.7889 353.811 40.4735 353.811C39.9565 353.811 39.4863 353.945 39.063 354.212C38.6397 354.479 38.3031 354.873 38.0531 355.392C37.8031 355.912 37.6781 356.55 37.6781 357.306C37.6781 358.061 37.8045 358.699 38.0574 359.219C38.3102 359.739 38.6525 360.133 39.0843 360.4C39.5162 360.667 40.002 360.8 40.5417 360.8C41.0417 360.8 41.4821 360.694 41.8627 360.481C42.2463 360.265 42.5446 359.961 42.7576 359.569C42.9735 359.174 43.0815 358.709 43.0815 358.175L43.4054 358.243H40.7804V357.306H44.1042V358.243C44.1042 358.962 43.9508 359.587 43.644 360.118C43.34 360.65 42.9196 361.061 42.3826 361.354C41.8485 361.644 41.2349 361.789 40.5417 361.789C39.769 361.789 39.09 361.607 38.5048 361.243C37.9224 360.88 37.4679 360.363 37.1412 359.692C36.8173 359.022 36.6554 358.226 36.6554 357.306C36.6554 356.615 36.7477 355.995 36.9324 355.444C37.1199 354.89 37.3841 354.418 37.725 354.029C38.0659 353.64 38.4693 353.341 38.9352 353.134C39.4011 352.927 39.9139 352.823 40.4735 352.823C40.9338 352.823 41.3627 352.892 41.7605 353.032C42.161 353.168 42.5176 353.363 42.8301 353.615C43.1454 353.865 43.4082 354.165 43.6184 354.515C43.8287 354.861 43.9735 355.246 44.0531 355.669H42.9622ZM45.9142 361.669V352.942H51.1813V353.88H46.9711V356.829H50.9086V357.766H46.9711V360.732H51.2495V361.669H45.9142ZM63.3816 352.942V361.669H62.3588L57.6032 354.817H57.5179V361.669H56.4611V352.942H57.4838L62.2566 359.811H62.3418V352.942H63.3816ZM72.8599 357.306C72.8599 358.226 72.6937 359.022 72.3613 359.692C72.0289 360.363 71.573 360.88 70.9934 361.243C70.4139 361.607 69.752 361.789 69.0076 361.789C68.2633 361.789 67.6014 361.607 67.0218 361.243C66.4423 360.88 65.9863 360.363 65.6539 359.692C65.3216 359.022 65.1554 358.226 65.1554 357.306C65.1554 356.385 65.3216 355.59 65.6539 354.919C65.9863 354.249 66.4423 353.732 67.0218 353.368C67.6014 353.005 68.2633 352.823 69.0076 352.823C69.752 352.823 70.4139 353.005 70.9934 353.368C71.573 353.732 72.0289 354.249 72.3613 354.919C72.6937 355.59 72.8599 356.385 72.8599 357.306ZM71.8372 357.306C71.8372 356.55 71.7108 355.912 71.4579 355.392C71.2079 354.873 70.8684 354.479 70.4395 354.212C70.0133 353.945 69.536 353.811 69.0076 353.811C68.4792 353.811 68.0005 353.945 67.5716 354.212C67.1454 354.479 66.8059 354.873 66.5531 355.392C66.3031 355.912 66.1781 356.55 66.1781 357.306C66.1781 358.061 66.3031 358.699 66.5531 359.219C66.8059 359.739 67.1454 360.133 67.5716 360.4C68.0005 360.667 68.4792 360.8 69.0076 360.8C69.536 360.8 70.0133 360.667 70.4395 360.4C70.8684 360.133 71.2079 359.739 71.4579 359.219C71.7108 358.699 71.8372 358.061 71.8372 357.306ZM73.7963 353.88V352.942H80.3418V353.88H77.5975V361.669H76.5407V353.88H73.7963ZM85.3478 361.669V352.942H90.5808V353.88H86.4047V356.829H90.1887V357.766H86.4047V361.669H85.3478ZM99.7544 357.306C99.7544 358.226 99.5882 359.022 99.2559 359.692C98.9235 360.363 98.4675 360.88 97.888 361.243C97.3084 361.607 96.6465 361.789 95.9022 361.789C95.1578 361.789 94.4959 361.607 93.9164 361.243C93.3368 360.88 92.8809 360.363 92.5485 359.692C92.2161 359.022 92.0499 358.226 92.0499 357.306C92.0499 356.385 92.2161 355.59 92.5485 354.919C92.8809 354.249 93.3368 353.732 93.9164 353.368C94.4959 353.005 95.1578 352.823 95.9022 352.823C96.6465 352.823 97.3084 353.005 97.888 353.368C98.4675 353.732 98.9235 354.249 99.2559 354.919C99.5882 355.59 99.7544 356.385 99.7544 357.306ZM98.7317 357.306C98.7317 356.55 98.6053 355.912 98.3525 355.392C98.1025 354.873 97.763 354.479 97.334 354.212C96.9078 353.945 96.4306 353.811 95.9022 353.811C95.3738 353.811 94.8951 353.945 94.4661 354.212C94.04 354.479 93.7005 354.873 93.4476 355.392C93.1976 355.912 93.0726 356.55 93.0726 357.306C93.0726 358.061 93.1976 358.699 93.4476 359.219C93.7005 359.739 94.04 360.133 94.4661 360.4C94.8951 360.667 95.3738 360.8 95.9022 360.8C96.4306 360.8 96.9078 360.667 97.334 360.4C97.763 360.133 98.1025 359.739 98.3525 359.219C98.6053 358.699 98.7317 358.061 98.7317 357.306ZM107.259 352.942H108.316V358.721C108.316 359.317 108.175 359.85 107.894 360.319C107.615 360.784 107.222 361.152 106.713 361.422C106.205 361.689 105.608 361.823 104.923 361.823C104.239 361.823 103.642 361.689 103.134 361.422C102.625 361.152 102.23 360.784 101.949 360.319C101.671 359.85 101.531 359.317 101.531 358.721V352.942H102.588V358.635C102.588 359.061 102.682 359.441 102.869 359.773C103.057 360.103 103.324 360.363 103.671 360.553C104.02 360.74 104.438 360.834 104.923 360.834C105.409 360.834 105.827 360.74 106.176 360.553C106.526 360.363 106.793 360.103 106.977 359.773C107.165 359.441 107.259 359.061 107.259 358.635V352.942ZM117.346 352.942V361.669H116.324L111.568 354.817H111.483V361.669H110.426V352.942H111.449L116.221 359.811H116.307V352.942H117.346ZM122.154 361.669H119.461V352.942H122.274C123.12 352.942 123.845 353.117 124.447 353.466C125.049 353.813 125.511 354.311 125.832 354.962C126.153 355.61 126.313 356.385 126.313 357.289C126.313 358.198 126.151 358.981 125.828 359.637C125.504 360.29 125.032 360.793 124.413 361.145C123.794 361.495 123.041 361.669 122.154 361.669ZM120.518 360.732H122.086C122.808 360.732 123.406 360.593 123.88 360.314C124.355 360.036 124.708 359.64 124.941 359.125C125.174 358.611 125.291 357.999 125.291 357.289C125.291 356.584 125.176 355.978 124.945 355.469C124.715 354.958 124.372 354.566 123.914 354.293C123.457 354.017 122.887 353.88 122.205 353.88H120.518V360.732Z" fill="#E95115"/>
<path d="M24.1486 361.669V352.942H27.0975C27.7821 352.942 28.3418 353.066 28.7765 353.313C29.214 353.557 29.5378 353.888 29.748 354.306C29.9583 354.723 30.0634 355.189 30.0634 355.704C30.0634 356.218 29.9583 356.685 29.748 357.106C29.5407 357.526 29.2196 357.861 28.785 358.111C28.3503 358.358 27.7935 358.482 27.1145 358.482H25.0009V357.544H27.0804C27.5492 357.544 27.9256 357.463 28.2097 357.302C28.4938 357.14 28.6998 356.921 28.8276 356.645C28.9583 356.367 29.0236 356.053 29.0236 355.704C29.0236 355.354 28.9583 355.042 28.8276 354.766C28.6998 354.49 28.4924 354.275 28.2054 354.118C27.9185 353.959 27.5378 353.88 27.0634 353.88H25.2054V361.669H24.1486ZM31.2331 361.669H30.1252L33.3297 352.942H34.4206L37.6252 361.669H36.5172L33.9093 354.323H33.8411L31.2331 361.669ZM31.6422 358.26H36.1081V359.198H31.6422V358.26ZM44.5403 355.669C44.4466 355.383 44.323 355.125 44.1696 354.898C44.019 354.668 43.8386 354.472 43.6284 354.31C43.421 354.148 43.1852 354.025 42.921 353.939C42.6568 353.854 42.367 353.811 42.0517 353.811C41.5346 353.811 41.0645 353.945 40.6412 354.212C40.2179 354.479 39.8812 354.873 39.6312 355.392C39.3812 355.912 39.2562 356.55 39.2562 357.306C39.2562 358.061 39.3826 358.699 39.6355 359.219C39.8883 359.739 40.2306 360.133 40.6625 360.4C41.0943 360.667 41.5801 360.8 42.1199 360.8C42.6199 360.8 43.0602 360.694 43.4409 360.481C43.8244 360.265 44.1227 359.961 44.3358 359.569C44.5517 359.174 44.6596 358.709 44.6596 358.175L44.9835 358.243H42.3585V357.306H45.6824V358.243C45.6824 358.962 45.5289 359.587 45.2221 360.118C44.9181 360.65 44.4977 361.061 43.9608 361.354C43.4267 361.644 42.813 361.789 42.1199 361.789C41.3471 361.789 40.6681 361.607 40.0829 361.243C39.5005 360.88 39.046 360.363 38.7193 359.692C38.3954 359.022 38.2335 358.226 38.2335 357.306C38.2335 356.615 38.3258 355.995 38.5105 355.444C38.698 354.89 38.9622 354.418 39.3031 354.029C39.644 353.64 40.0474 353.341 40.5133 353.134C40.9792 352.927 41.492 352.823 42.0517 352.823C42.5119 352.823 42.9409 352.892 43.3386 353.032C43.7392 353.168 44.0957 353.363 44.4082 353.615C44.7235 353.865 44.9863 354.165 45.1966 354.515C45.4068 354.861 45.5517 355.246 45.6312 355.669H44.5403ZM47.4924 361.669V352.942H52.7594V353.88H48.5492V356.829H52.4867V357.766H48.5492V360.732H52.8276V361.669H47.4924ZM64.9597 352.942V361.669H63.937L59.1813 354.817H59.0961V361.669H58.0392V352.942H59.062L63.8347 359.811H63.9199V352.942H64.9597ZM74.438 357.306C74.438 358.226 74.2718 359.022 73.9395 359.692C73.6071 360.363 73.1511 360.88 72.5716 361.243C71.992 361.607 71.3301 361.789 70.5858 361.789C69.8414 361.789 69.1795 361.607 68.6 361.243C68.0204 360.88 67.5645 360.363 67.2321 359.692C66.8997 359.022 66.7335 358.226 66.7335 357.306C66.7335 356.385 66.8997 355.59 67.2321 354.919C67.5645 354.249 68.0204 353.732 68.6 353.368C69.1795 353.005 69.8414 352.823 70.5858 352.823C71.3301 352.823 71.992 353.005 72.5716 353.368C73.1511 353.732 73.6071 354.249 73.9395 354.919C74.2718 355.59 74.438 356.385 74.438 357.306ZM73.4153 357.306C73.4153 356.55 73.2889 355.912 73.036 355.392C72.786 354.873 72.4466 354.479 72.0176 354.212C71.5914 353.945 71.1142 353.811 70.5858 353.811C70.0574 353.811 69.5787 353.945 69.1497 354.212C68.7235 354.479 68.3841 354.873 68.1312 355.392C67.8812 355.912 67.7562 356.55 67.7562 357.306C67.7562 358.061 67.8812 358.699 68.1312 359.219C68.3841 359.739 68.7235 360.133 69.1497 360.4C69.5787 360.667 70.0574 360.8 70.5858 360.8C71.1142 360.8 71.5914 360.667 72.0176 360.4C72.4466 360.133 72.786 359.739 73.036 359.219C73.2889 358.699 73.4153 358.061 73.4153 357.306ZM75.3745 353.88V352.942H81.9199V353.88H79.1756V361.669H78.1188V353.88H75.3745ZM86.926 361.669V352.942H92.1589V353.88H87.9828V356.829H91.7669V357.766H87.9828V361.669H86.926ZM101.333 357.306C101.333 358.226 101.166 359.022 100.834 359.692C100.502 360.363 100.046 360.88 99.4661 361.243C98.8865 361.607 98.2246 361.789 97.4803 361.789C96.736 361.789 96.074 361.607 95.4945 361.243C94.915 360.88 94.459 360.363 94.1266 359.692C93.7942 359.022 93.628 358.226 93.628 357.306C93.628 356.385 93.7942 355.59 94.1266 354.919C94.459 354.249 94.915 353.732 95.4945 353.368C96.074 353.005 96.736 352.823 97.4803 352.823C98.2246 352.823 98.8865 353.005 99.4661 353.368C100.046 353.732 100.502 354.249 100.834 354.919C101.166 355.59 101.333 356.385 101.333 357.306ZM100.31 357.306C100.31 356.55 100.183 355.912 99.9306 355.392C99.6806 354.873 99.3411 354.479 98.9121 354.212C98.486 353.945 98.0087 353.811 97.4803 353.811C96.9519 353.811 96.4732 353.945 96.0442 354.212C95.6181 354.479 95.2786 354.873 95.0257 355.392C94.7757 355.912 94.6507 356.55 94.6507 357.306C94.6507 358.061 94.7757 358.699 95.0257 359.219C95.2786 359.739 95.6181 360.133 96.0442 360.4C96.4732 360.667 96.9519 360.8 97.4803 360.8C98.0087 360.8 98.486 360.667 98.9121 360.4C99.3411 360.133 99.6806 359.739 99.9306 359.219C100.183 358.699 100.31 358.061 100.31 357.306ZM108.837 352.942H109.894V358.721C109.894 359.317 109.753 359.85 109.472 360.319C109.193 360.784 108.8 361.152 108.291 361.422C107.783 361.689 107.186 361.823 106.502 361.823C105.817 361.823 105.22 361.689 104.712 361.422C104.203 361.152 103.808 360.784 103.527 360.319C103.249 359.85 103.11 359.317 103.11 358.721V352.942H104.166V358.635C104.166 359.061 104.26 359.441 104.448 359.773C104.635 360.103 104.902 360.363 105.249 360.553C105.598 360.74 106.016 360.834 106.502 360.834C106.987 360.834 107.405 360.74 107.754 360.553C108.104 360.363 108.371 360.103 108.556 359.773C108.743 359.441 108.837 359.061 108.837 358.635V352.942ZM118.925 352.942V361.669H117.902L113.146 354.817H113.061V361.669H112.004V352.942H113.027L117.8 359.811H117.885V352.942H118.925ZM123.732 361.669H121.039V352.942H123.852C124.698 352.942 125.423 353.117 126.025 353.466C126.627 353.813 127.089 354.311 127.41 354.962C127.731 355.61 127.892 356.385 127.892 357.289C127.892 358.198 127.73 358.981 127.406 359.637C127.082 360.29 126.61 360.793 125.991 361.145C125.372 361.495 124.619 361.669 123.732 361.669ZM122.096 360.732H123.664C124.386 360.732 124.984 360.593 125.458 360.314C125.933 360.036 126.286 359.64 126.519 359.125C126.752 358.611 126.869 357.999 126.869 357.289C126.869 356.584 126.754 355.978 126.524 355.469C126.294 354.958 125.95 354.566 125.492 354.293C125.035 354.017 124.465 353.88 123.784 353.88H122.096V360.732Z" fill="black"/>
<path d="M277.318 259.893H270.493V250.361H270.481L265.075 244.935L263.033 242.894L270.506 235.427H275.178V230.025H273.221V213.038L265.748 205.571H210.685V230.025H214.281V235.427H207.958V259.893H211.982V280.229H226.928V259.893H222.904V250.361H255.56V259.893H262.385V280.229H277.33V259.893H277.318ZM225.619 220.493H258.275V230.025V235.427H232.444V230.025H225.607V220.493H225.619Z" fill="#00B1E2"/>
<path d="M354.457 250.349V235.439H356.402V230.037H359.325V213.05L351.852 205.583H304.25L296.777 213.05V230.037H285.978V235.439H291.909V259.906H296.777V272.774L304.25 280.242H351.852L359.325 272.774V265.32H361.172V259.918H354.457V250.361V250.349ZM344.379 265.295H311.723V259.893H306.855V235.427H308.8V230.025H311.723V220.493H344.379V230.025H333.579V235.427H339.511V259.893H344.379V265.295Z" fill="#00B1E2"/>
<path d="M282.737 280.229H277.318V285.631V291.033H282.737V285.631V280.229Z" fill="#00B1E2"/>
<path d="M55.5272 265.295H53.5703V272.762L61.0433 280.229H64.9326V285.631H70.3386V280.229H112.119V265.295H55.5272Z" fill="#00B1E2"/>
<path d="M107.349 244.935V235.427H65.5935V230.025H68.5166V220.493H112.119V205.559H61.0436L53.5707 213.026V230.025H43.2725V235.427H48.7029V244.935V250.349H107.349V244.935Z" fill="#00B1E2"/>
<path d="M70.4728 259.893H63.648V250.361L48.7021 250.349V259.893H55.5269V265.295H70.4728V259.893Z" fill="#00B1E2"/>
<path d="M43.2722 235.427H37.8662V240.828H43.2722V235.427Z" fill="#00B1E2"/>
<path d="M54.1088 285.631H48.7028H43.2969V291.033H48.7028H54.1088V285.631Z" fill="#00B1E2"/>
<path d="M59.5144 291.045H54.1084V296.447H59.5144V291.045Z" fill="#00B1E2"/>
<path d="M112.118 280.229V285.631V291.033H117.524V285.631V280.229H112.118Z" fill="#00B1E2"/>
<path d="M27.0546 240.829H21.6364H16.2305V246.243H21.6364H27.0546H32.4606H37.8665V240.829H32.4606H27.0546Z" fill="#00B1E2"/>
<path d="M16.2302 235.427H10.8242V240.828H16.2302V235.427Z" fill="#00B1E2"/>
<path d="M439.399 213.026L431.926 205.558H397.216V200.157H391.81V205.558H376.864V230.013H371.996V259.881H376.864V280.217H391.81V265.295H397.216V259.893H386.942V250.361H410.082L419.598 259.869V259.893H426.423V280.229H446.97V274.828H441.369V259.906H434.544V250.373H434.532L429.126 244.947L427.083 242.906L434.556 235.439H452.388V230.037H439.424V213.05L439.399 213.026ZM421.163 230.013V235.415H388.887V230.013H391.81V220.48H424.466V230.013H421.163Z" fill="#00B1E2"/>
<path d="M397.204 280.229H391.798V285.631H397.204V280.229Z" fill="#00B1E2"/>
<path d="M391.798 189.353H386.392V194.755V200.157H391.798V194.755V189.353Z" fill="#00B1E2"/>
<path d="M452.364 224.611V230.025H457.77H463.188V224.611H457.77H452.364Z" fill="#00B1E2"/>
<path d="M474 230.025H468.594V235.427H474V230.025Z" fill="#00B1E2"/>
<path d="M463.176 240.829H457.77V246.23H463.176V240.829Z" fill="#00B1E2"/>
<path d="M446.958 291.033H452.364V285.631V280.229H446.958V285.631V291.033Z" fill="#00B1E2"/>
<path d="M191.215 250.361H191.202L185.796 244.935L183.754 242.894L191.227 235.427H193.172V230.025H191.227V213.038L183.754 205.571H128.691V235.439V265.307H133.559V280.229H148.505V265.307H143.637V250.373H176.293V259.906H181.699V280.242H201.195V274.84H196.645V259.918H191.239V250.385M143.65 220.517H176.305V230.05V235.451H151.343V230.05H143.662V220.517H143.65Z" fill="#00B1E2"/>
<path d="M181.675 280.229H176.269V285.631H181.675V280.229Z" fill="#00B1E2"/>
<path d="M139.491 200.157H144.885V194.755H139.491H139.479H134.085V200.157H139.479H139.491Z" fill="#00B1E2"/>
<path d="M150.291 189.353H144.885V194.755H150.291V189.353Z" fill="#00B1E2"/>
<path d="M266.507 259.893H259.682V250.361H259.67L254.264 244.935L252.221 242.894L259.694 235.427H264.366V230.025H262.409V213.038L254.936 205.571H199.874V230.025H203.47V235.427H197.146V259.893H201.17V280.229H216.116V259.893H212.092V250.361H244.748V259.893H251.573V280.229H266.519V259.893H266.507ZM214.808 220.493H247.464V230.025V235.427H221.632V230.025H214.795V220.493H214.808Z" fill="#E95115"/>
<path d="M343.646 250.349V235.439H345.59V230.037H348.513V213.05L341.04 205.583H293.439L285.966 213.05V230.037H275.166V235.439H281.098V259.906H285.966V272.774L293.439 280.242H341.04L348.513 272.774V265.32H350.36V259.918H343.646V250.361V250.349ZM333.568 265.295H300.912V259.893H296.044V235.427H297.988V230.025H300.912V220.493H333.568V230.025H322.768V235.427H328.7V259.893H333.568V265.295Z" fill="#E95115"/>
<path d="M271.913 280.229H266.507V285.631V291.033H271.913V285.631V280.229Z" fill="#E95115"/>
<path d="M44.703 265.295H42.7461V272.762L50.219 280.229H54.1084V285.631H59.5266V280.229H101.294V265.295H44.703Z" fill="#E95115"/>
<path d="M96.5243 244.935V235.427H54.7687V230.025H57.6919V220.493H101.294V205.559H50.2189L42.746 213.026V230.025H32.46V235.427H37.8781V244.935V250.349H96.5243V244.935Z" fill="#E95115"/>
<path d="M59.6485 259.893H52.8238V250.361L37.8779 250.349V259.893H44.7026V265.295H59.6485V259.893Z" fill="#E95115"/>
<path d="M32.4606 235.427H27.0547V240.828H32.4606V235.427Z" fill="#E95115"/>
<path d="M43.2968 285.631H37.8786H32.4727V291.033H37.8786H43.2968V285.631Z" fill="#E95115"/>
<path d="M48.6901 291.045H43.2842V296.447H48.6901V291.045Z" fill="#E95115"/>
<path d="M101.295 280.229V285.631V291.033H106.701V285.631V280.229H101.295Z" fill="#E95115"/>
<path d="M16.2304 240.829H10.8244H5.40625V246.243H10.8244H16.2304H21.6364H27.0546V240.829H21.6364H16.2304Z" fill="#E95115"/>
<path d="M5.40596 235.427H0V240.828H5.40596V235.427Z" fill="#E95115"/>
<path d="M428.575 213.026L421.102 205.558H386.392V200.157H380.986V205.558H366.04V230.013H361.172V259.881H366.04V280.217H380.986V265.295H386.392V259.893H376.118V250.361H399.258L408.774 259.869V259.893H415.598V280.229H436.146V274.828H430.544V259.906H423.72V250.373H423.707L418.301 244.947L416.259 242.906L423.732 235.439H441.564V230.037H428.6V213.05L428.575 213.026ZM410.339 230.013V235.415H378.062V230.013H380.986V220.48H413.642V230.013H410.339Z" fill="#E95115"/>
<path d="M386.38 280.229H380.974V285.631H386.38V280.229Z" fill="#E95115"/>
<path d="M380.973 189.353H375.567V194.755V200.157H380.973V194.755V189.353Z" fill="#E95115"/>
<path d="M441.54 224.611V230.025H446.958H452.364V224.611H446.958H441.54Z" fill="#E95115"/>
<path d="M463.176 230.025H457.77V235.427H463.176V230.025Z" fill="#E95115"/>
<path d="M452.364 240.829H446.958V246.23H452.364V240.829Z" fill="#E95115"/>
<path d="M436.134 291.033H441.54V285.631V280.229H436.134V285.631V291.033Z" fill="#E95115"/>
<path d="M185.796 265.295V259.893H180.39V250.361H180.378L174.972 244.935L172.93 242.894L180.403 235.427H182.347V230.025H180.403V213.038L172.93 205.571H117.867V235.439V265.307H122.735V280.229H137.681V265.307H132.813V250.373H165.469V259.906H170.875V280.242H190.371V274.84H185.821V265.32L185.796 265.295ZM132.789 220.493H165.445V230.025V235.427H140.482V230.025H132.801V220.493H132.789Z" fill="#E95115"/>
<path d="M170.85 280.229H165.444V285.631H170.85V280.229Z" fill="#E95115"/>
<path d="M128.667 200.157H134.06V194.755H128.667H128.654H123.261V200.157H128.654H128.667Z" fill="#E95115"/>
<path d="M139.467 189.353H134.061V194.755H139.467V189.353Z" fill="#E95115"/>
<path d="M271.913 259.893H265.088V250.361H265.076L259.67 244.935L257.627 242.894L265.1 235.427H269.773V230.025H267.816V213.038L260.343 205.571H205.28V230.025H208.876V235.427H202.553V259.893H206.577V280.229H221.523V259.893H217.499V250.361H250.155V259.893H256.979V280.229H271.925V259.893H271.913ZM252.87 235.427H227.039V230.025H220.202V220.493H252.858V230.025V235.427H252.87Z" fill="black"/>
<path d="M349.052 250.349V235.439H350.997V230.037H353.92V213.05L346.447 205.583H298.845L291.372 213.05V230.037H280.572V235.439H286.504V259.906H291.372V272.774L298.845 280.242H346.447L353.92 272.774V265.32H355.767V259.918H349.052V250.361V250.349ZM338.974 230.025H328.174V235.427H334.106V259.893H338.974V265.295H306.318V259.893H301.45V235.427H303.395V230.025H306.318V220.493H338.974V230.025Z" fill="black"/>
<path d="M271.912 285.631V291.033H277.318V285.631V280.229H271.912V285.631Z" fill="black"/>
<path d="M50.121 265.295H48.1641V272.762L55.637 280.229H59.5264V285.631H64.9323V280.229H106.7V265.295H50.121Z" fill="black"/>
<path d="M101.943 244.935V235.427H60.1872V230.025H63.1103V220.493H106.7V205.559H55.6374L48.1644 213.026V230.025H37.8662V235.427H43.2966V244.935V250.349H101.943V244.935Z" fill="black"/>
<path d="M65.0553 259.893H58.2428V250.361L43.2969 250.349V259.893H50.1216V265.295H65.0553V259.893Z" fill="black"/>
<path d="M37.8659 235.427H32.46V240.828H37.8659V235.427Z" fill="black"/>
<path d="M48.7021 285.631H43.2961H37.8779V291.033H43.2961H48.7021V285.631Z" fill="black"/>
<path d="M54.0964 291.045H48.6904V296.447H54.0964V291.045Z" fill="black"/>
<path d="M106.7 285.631V291.033H112.118V285.631V280.229H106.7V285.631Z" fill="black"/>
<path d="M21.6361 240.829H16.2302H10.8242V246.243H16.2302H21.6361H27.0543H32.4603V240.829H27.0543H21.6361Z" fill="black"/>
<path d="M10.8122 235.427H5.40625V240.828H10.8122V235.427Z" fill="black"/>
<path d="M433.981 213.026L426.508 205.558H391.798V200.157H386.392V205.558H371.446V230.013H366.578V259.881H371.446V280.217H386.392V265.295H391.798V259.893H381.524V250.361H404.664L414.18 259.869V259.893H421.005V280.229H441.552V274.828H435.951V259.906H429.126V250.373H429.114L423.708 244.947L421.665 242.906L429.138 235.439H446.97V230.037H434.006V213.05L433.981 213.026ZM419.035 230.013H415.733V235.415H383.456V230.013H386.38V220.48H419.035V230.013Z" fill="black"/>
<path d="M391.798 280.229H386.392V285.631H391.798V280.229Z" fill="black"/>
<path d="M386.392 189.353H380.974V194.755V200.157H386.392V194.755V189.353Z" fill="black"/>
<path d="M446.958 224.611V230.025H452.364H457.77V224.611H452.364H446.958Z" fill="black"/>
<path d="M468.594 230.025H463.188V235.427H468.594V230.025Z" fill="black"/>
<path d="M457.77 240.829H452.364V246.23H457.77V240.829Z" fill="black"/>
<path d="M441.54 291.033H446.958V285.631V280.229H441.54V285.631V291.033Z" fill="black"/>
<path d="M191.214 265.295V259.893H185.808V250.361H185.796L180.39 244.935L178.348 242.894L185.821 235.427H187.765V230.025H185.821V213.038L178.348 205.571H123.285V235.439V265.307H128.153V280.229H143.099V265.307H138.231V250.373H170.887V259.906H176.293V280.242H195.789V274.84H191.239V265.32L191.214 265.295ZM170.862 230.013V235.415H145.9V230.013H138.219V220.481H170.875V230.013H170.862Z" fill="black"/>
<path d="M176.268 280.229H170.862V285.631H176.268V280.229Z" fill="black"/>
<path d="M134.085 200.157H139.479V194.755H134.085H134.061H128.667V200.157H134.061H134.085Z" fill="black"/>
<path d="M144.884 189.353H139.479V194.755H144.884V189.353Z" fill="black"/>
<path d="M112.436 167.734H107.03V173.136H112.436V167.734Z" fill="#E95115"/>
<path d="M199.409 90.1304H194.003V95.5321H199.409V90.1304Z" fill="#E95115"/>
<path d="M107.031 173.136H101.625V178.538H107.031V173.136Z" fill="#E95115"/>
<path d="M101.612 173.136H96.2061V178.538H101.612V173.136Z" fill="#E95115"/>
<path d="M96.2067 173.136H90.8008V178.538H96.2067V173.136Z" fill="#E95115"/>
<path d="M90.8005 178.538H85.3945V183.939H90.8005V178.538Z" fill="#E95115"/>
<path d="M279.348 178.538H273.942V183.939H279.348V178.538Z" fill="#E95115"/>
<path d="M273.943 178.538H268.537V183.939H273.943V178.538Z" fill="#E95115"/>
<path d="M268.537 178.538H263.131V183.939H268.537V178.538Z" fill="#E95115"/>
<path d="M263.119 173.136H257.713V178.538H263.119V173.136Z" fill="#E95115"/>
<path d="M257.713 167.734H252.307V173.136H257.713V167.734Z" fill="#E95115"/>
<path d="M257.713 167.734H252.307V173.136H257.713V167.734Z" fill="#E95115"/>
<path d="M82.0804 47.2712H45.9265L43.5537 52.6852H79.8911L82.0804 47.2712Z" fill="#E95115"/>
<path d="M144.297 47.2712H107.03V52.673H144.297V47.2712Z" fill="#E95115"/>
<path d="M376.204 16.2173H341.089L327.477 47.271H363.63L376.204 16.2173Z" fill="#E95115"/>
<path d="M425.86 16.2173H388.593V47.271H425.86V16.2173Z" fill="#E95115"/>
<path d="M383.175 52.6851V87.5151H341.933L356.035 52.6851H319.697L297.719 102.828L321.825 125.18H383.175V145.04H420.454V52.6851H383.175Z" fill="#E95115"/>
<path d="M415.035 150.441H377.769V173.136H415.035V150.441Z" fill="#E95115"/>
<path d="M352.819 47.2712H316.665L314.292 52.6852H350.629L352.819 47.2712Z" fill="#E95115"/>
<path d="M415.035 47.2712H377.769V52.673H415.035V47.2712Z" fill="#E95115"/>
<path d="M425.86 145.04H388.593V150.442H425.86V145.04Z" fill="#E95115"/>
<path d="M273.221 16.2173H191.973L175.009 33.5834V47.271V52.685V84.7286H210.233V50.1919H254.753V84.7286H290.173V33.5834L273.221 16.2173Z" fill="#E95115"/>
<path d="M194.003 84.7288H158.778V90.1305H194.003V84.7288Z" fill="#E95115"/>
<path d="M279.361 84.7288H243.929V90.1305H279.361V84.7288Z" fill="#E95115"/>
<path d="M105.465 16.2173H70.351L56.7383 47.271H92.8922L105.465 16.2173Z" fill="#E95115"/>
<path d="M155.121 16.2173H117.854V47.271H155.121V16.2173Z" fill="#E95115"/>
<path d="M420.442 167.734H415.036V173.136H420.442V167.734Z" fill="#E95115"/>
<path d="M431.266 150.441H425.86V155.843H431.266V150.441Z" fill="#E95115"/>
<path d="M431.266 10.8157H425.86V16.2174H431.266V10.8157Z" fill="#E95115"/>
<path d="M425.86 10.8157H420.454V16.2174H425.86V10.8157Z" fill="#E95115"/>
<path d="M420.442 10.8157H415.036V16.2174H420.442V10.8157Z" fill="#E95115"/>
<path d="M436.672 5.40161H431.266V10.8033H436.672V5.40161Z" fill="#E95115"/>
<path d="M204.815 0H199.409V5.40172H204.815V0Z" fill="#E95115"/>
<path d="M210.221 5.40161H204.815V10.8033H210.221V5.40161Z" fill="#E95115"/>
<path d="M215.639 5.40161H210.233V10.8033H215.639V5.40161Z" fill="#E95115"/>
<path d="M221.045 5.40161H215.639V10.8033H221.045V5.40161Z" fill="#E95115"/>
<path d="M226.451 10.8157H221.045V16.2174H226.451V10.8157Z" fill="#E95115"/>
<path d="M155.122 10.8157H149.716V16.2174H155.122V10.8157Z" fill="#E95115"/>
<path d="M160.528 10.8157H155.122V16.2174H160.528V10.8157Z" fill="#E95115"/>
<path d="M165.933 5.40161H160.527V10.8033H165.933V5.40161Z" fill="#E95115"/>
<path d="M436.672 150.441H431.266V155.843H436.672V150.441Z" fill="#E95115"/>
<path d="M442.091 150.441H436.685V155.843H442.091V150.441Z" fill="#E95115"/>
<path d="M377.769 167.734H372.363V173.136H377.769V167.734Z" fill="#E95115"/>
<path d="M415.036 167.734H409.63V173.136H415.036V167.734Z" fill="#E95115"/>
<path d="M149.703 130.643H112.437V173.136H149.703V130.643Z" fill="#E95115"/>
<path d="M149.715 52.6851H112.436V87.5151H71.1944L85.2964 52.6851H48.959L26.9805 102.828L51.0871 125.18H112.436V125.229H149.715V52.6851Z" fill="#E95115"/>
<path d="M144.297 125.229H107.03V130.631H144.297V125.229Z" fill="#E95115"/>
<path d="M249.334 90.1304V139.161H204.815V130.643H169.603V155.77L186.566 173.136H267.803L284.767 155.77V90.1304H249.334Z" fill="#E95115"/>
<path d="M199.422 90.1304H164.197V125.229H199.422V90.1304Z" fill="#E95115"/>
<path d="M199.422 125.229H164.197V130.631H199.422V125.229Z" fill="#E95115"/>
<path d="M123.26 167.734H117.854V173.136H123.26V167.734Z" fill="#00B1E2"/>
<path d="M210.221 90.1304H204.815V95.5321H210.221V90.1304Z" fill="#00B1E2"/>
<path d="M117.842 173.136H112.437V178.538H117.842V173.136Z" fill="#00B1E2"/>
<path d="M112.436 173.136H107.03V178.538H112.436V173.136Z" fill="#00B1E2"/>
<path d="M107.031 173.136H101.625V178.538H107.031V173.136Z" fill="#00B1E2"/>
<path d="M101.612 178.538H96.2061V183.939H101.612V178.538Z" fill="#00B1E2"/>
<path d="M290.173 178.538H284.767V183.939H290.173V178.538Z" fill="#00B1E2"/>
<path d="M284.767 178.538H279.361V183.939H284.767V178.538Z" fill="#00B1E2"/>
<path d="M279.348 178.538H273.942V183.939H279.348V178.538Z" fill="#00B1E2"/>
<path d="M273.943 173.136H268.537V178.538H273.943V173.136Z" fill="#00B1E2"/>
<path d="M268.537 167.734H263.131V173.136H268.537V167.734Z" fill="#00B1E2"/>
<path d="M268.537 167.734H263.131V173.136H268.537V167.734Z" fill="#00B1E2"/>
<path d="M92.8919 47.2712H56.738L54.3652 52.6852H90.7026L92.8919 47.2712Z" fill="#00B1E2"/>
<path d="M155.121 47.2712H117.854V52.673H155.121V47.2712Z" fill="#00B1E2"/>
<path d="M387.028 16.2173H351.914L338.301 47.271H374.455L387.028 16.2173Z" fill="#00B1E2"/>
<path d="M436.672 16.2173H399.405V47.271H436.672V16.2173Z" fill="#00B1E2"/>
<path d="M393.999 52.6851V87.5151H352.745L366.859 52.6851H330.521L308.543 102.828L332.65 125.18H393.999V145.04H431.266V52.6851H393.999Z" fill="#00B1E2"/>
<path d="M425.86 150.441H388.593V173.136H425.86V150.441Z" fill="#00B1E2"/>
<path d="M363.631 47.2712H327.477L325.116 52.6852H361.441L363.631 47.2712Z" fill="#00B1E2"/>
<path d="M425.86 47.2712H388.593V52.673H425.86V47.2712Z" fill="#00B1E2"/>
<path d="M436.672 145.04H399.405V150.442H436.672V145.04Z" fill="#00B1E2"/>
<path d="M284.033 16.2173H202.797L185.833 33.5834V47.271V52.685V84.7286H221.045V50.1919H265.565V84.7286H300.997V33.5834L284.033 16.2173Z" fill="#00B1E2"/>
<path d="M204.827 84.7288H169.603V90.1305H204.827V84.7288Z" fill="#00B1E2"/>
<path d="M290.185 84.7288H254.753V90.1305H290.185V84.7288Z" fill="#00B1E2"/>
<path d="M116.29 16.2173H81.1752L67.5625 47.271H103.716L116.29 16.2173Z" fill="#00B1E2"/>
<path d="M165.934 16.2173H128.667V47.271H165.934V16.2173Z" fill="#00B1E2"/>
<path d="M431.266 167.734H425.86V173.136H431.266V167.734Z" fill="#00B1E2"/>
<path d="M442.091 150.441H436.685V155.843H442.091V150.441Z" fill="#00B1E2"/>
<path d="M442.091 10.8157H436.685V16.2174H442.091V10.8157Z" fill="#00B1E2"/>
<path d="M436.672 10.8157H431.266V16.2174H436.672V10.8157Z" fill="#00B1E2"/>
<path d="M431.266 10.8157H425.86V16.2174H431.266V10.8157Z" fill="#00B1E2"/>
<path d="M447.496 5.40161H442.09V10.8033H447.496V5.40161Z" fill="#00B1E2"/>
<path d="M215.639 0H210.233V5.40172H215.639V0Z" fill="#00B1E2"/>
<path d="M221.045 5.40161H215.639V10.8033H221.045V5.40161Z" fill="#00B1E2"/>
<path d="M226.451 5.40161H221.045V10.8033H226.451V5.40161Z" fill="#00B1E2"/>
<path d="M231.869 5.40161H226.463V10.8033H231.869V5.40161Z" fill="#00B1E2"/>
<path d="M237.275 10.8157H231.869V16.2174H237.275V10.8157Z" fill="#00B1E2"/>
<path d="M165.933 10.8157H160.527V16.2174H165.933V10.8157Z" fill="#00B1E2"/>
<path d="M171.352 10.8157H165.946V16.2174H171.352V10.8157Z" fill="#00B1E2"/>
<path d="M176.758 5.40161H171.352V10.8033H176.758V5.40161Z" fill="#00B1E2"/>
<path d="M447.496 150.441H442.09V155.843H447.496V150.441Z" fill="#00B1E2"/>
<path d="M452.902 150.441H447.496V155.843H452.902V150.441Z" fill="#00B1E2"/>
<path d="M388.581 167.734H383.175V173.136H388.581V167.734Z" fill="#00B1E2"/>
<path d="M425.86 167.734H420.454V173.136H425.86V167.734Z" fill="#00B1E2"/>
<path d="M160.528 130.643H123.261V173.136H160.528V130.643Z" fill="#00B1E2"/>
<path d="M160.527 52.6851H123.26V87.5151H82.0064L96.1206 52.6851H59.7832L37.8047 102.828L61.9114 125.18H123.26V125.229H160.527V52.6851Z" fill="#00B1E2"/>
<path d="M155.121 125.229H117.854V130.631H155.121V125.229Z" fill="#00B1E2"/>
<path d="M260.159 90.1304V139.161H215.639V130.643H180.427V155.77L197.378 173.136H278.627L295.591 155.77V90.1304H260.159Z" fill="#00B1E2"/>
<path d="M210.233 90.1304H175.009V125.229H210.233V90.1304Z" fill="#00B1E2"/>
<path d="M210.233 125.229H175.009V130.631H210.233V125.229Z" fill="#00B1E2"/>
<path d="M117.842 167.734H112.437V173.136H117.842V167.734Z" fill="black"/>
<path d="M101.612 173.136H96.2061V178.538H101.612H107.018H112.436V173.136H107.018H101.612Z" fill="black"/>
<path d="M96.2067 178.538H90.8008V183.939H96.2067V178.538Z" fill="black"/>
<path d="M273.943 183.952H279.349H284.755V178.538H279.349H273.943H268.537V183.952H273.943Z" fill="black"/>
<path d="M268.524 173.136H263.118V178.538H268.524V173.136Z" fill="black"/>
<path d="M425.86 145.04V52.6851H420.442V47.2711H431.266V16.2174H436.672V10.8157H431.266H425.86H420.442V16.2174H393.999V47.2711H383.175V52.6851H388.581V87.5152H347.339L361.441 52.6851H356.023L358.212 47.2711H369.036L381.609 16.2174H346.495L332.882 47.2711H322.058L319.698 52.6851H325.104L303.125 102.828L327.232 125.181H388.581V145.04H393.999V150.441H383.175V167.734H377.769V173.136H383.175H415.036H420.442H425.86V167.734H420.442V150.441H431.266V145.04H425.86Z" fill="black"/>
<path d="M231.87 16.2174V10.8157H226.464V16.2174H197.391L180.427 33.5835V84.7287H164.197V90.1305H169.603V130.631H175.009V155.758L191.973 173.124H257.713H263.119H273.209L290.173 155.758V90.1182H284.767V84.7165H295.591V33.5835L278.628 16.2174H231.87ZM254.753 90.1305V139.149H210.234V130.631H204.828V90.1305H199.422V84.7287H215.652V50.192H260.171V84.7287H249.347V90.1305H254.753Z" fill="black"/>
<path d="M442.078 5.40161H436.672V10.8033H442.078V5.40161Z" fill="black"/>
<path d="M210.221 0H204.815V5.40172H210.221V0Z" fill="black"/>
<path d="M221.045 5.40161H215.639H210.221V10.8155H215.639H221.045H226.451V5.40161H221.045Z" fill="black"/>
<path d="M165.934 10.8157H160.528H155.122V16.2174H123.248V47.2711H112.437V52.6851H117.842V87.5152H76.6006L90.7026 52.6851H85.2844L87.4737 47.2711H98.2979L110.871 16.2174H75.7567L62.144 47.2711H51.3198L48.9593 52.6851H54.3653L32.3867 102.828L56.4934 125.181H117.842V125.229H112.437V130.643H117.842V173.136H155.122V130.643H149.703V125.229H155.122V52.6851H149.703V47.2711H160.528V16.2174H165.934V10.8157Z" fill="black"/>
<path d="M171.34 5.40161H165.934V10.8033H171.34V5.40161Z" fill="black"/>
<path d="M442.078 150.441H436.672H431.266V155.855H436.672H442.078H447.496V150.441H442.078Z" fill="black"/>
</svg>
