<svg width="481" height="552" viewBox="0 0 481 552" fill="none" xmlns="http://www.w3.org/2000/svg">
<path d="M196.782 124.112C193.75 125.664 190.882 126.251 188.156 125.899C185.429 125.546 182.656 124.23 179.812 121.997L115.129 70.4298C112.168 68.1264 110.358 65.682 109.7 63.0496C109.042 60.4171 109.3 57.9727 110.476 55.6929C111.651 53.413 113.625 51.5562 116.399 50.146C119.854 48.3832 181.904 16.8175 185.171 15.1488C187.686 13.8561 190.177 13.48 192.598 13.9736C195.019 14.4907 197.04 15.7599 198.662 17.7812C200.284 19.8025 201.2 22.717 201.435 26.5246L205.031 109.164C205.172 112.784 204.632 115.792 203.41 118.166C202.187 120.54 199.955 122.538 196.758 124.159" fill="#043B4E" fill-opacity="0.1"/>
<path d="M291.454 106.461C288.07 106.132 285.343 105.074 283.228 103.288C281.136 101.525 279.491 98.9162 278.316 95.4847L251.733 17.1464C250.464 13.6209 250.276 10.5654 251.145 8.00344C252.015 5.44152 253.566 3.51421 255.776 2.2215C257.985 0.928789 260.641 0.435208 263.743 0.740758C267.598 1.11682 336.864 8.07395 340.53 8.42651C343.351 8.70855 345.631 9.71922 347.417 11.4585C349.18 13.1978 350.19 15.3601 350.473 17.9456C350.731 20.531 349.932 23.469 348.099 26.783L306.497 98.2816C304.664 101.408 302.595 103.64 300.268 104.98C297.941 106.32 295.004 106.79 291.431 106.437" fill="#043B4E" fill-opacity="0.1"/>
<path d="M380.629 142.727C377.973 140.612 376.234 138.238 375.435 135.606C374.636 132.973 374.659 129.894 375.529 126.392L395.625 46.1501C396.471 42.5071 397.975 39.8276 400.091 38.1588C402.206 36.4666 404.556 35.6909 407.118 35.8085C409.68 35.926 412.172 36.9602 414.616 38.8875C417.648 41.2849 472.106 84.6494 474.997 86.9528C477.207 88.7156 478.593 90.8074 479.134 93.2283C479.674 95.6492 479.369 98.0231 478.194 100.326C477.019 102.63 474.739 104.698 471.401 106.484L397.693 144.044C394.45 145.689 391.512 146.441 388.832 146.3C386.153 146.159 383.426 144.984 380.629 142.751" fill="#043B4E" fill-opacity="0.1"/>
<path d="M436.005 221.418C434.923 218.198 434.735 215.26 435.488 212.628C436.24 209.996 437.932 207.41 440.564 204.919L500.899 148.321C503.602 145.713 506.281 144.279 508.984 144.02C511.663 143.762 514.061 144.373 516.153 145.854C518.244 147.334 519.796 149.544 520.783 152.505C522.029 156.172 544.334 222.123 545.509 225.602C546.426 228.281 546.449 230.796 545.603 233.123C544.757 235.45 543.206 237.26 540.973 238.576C538.74 239.892 535.708 240.386 531.924 240.057L449.613 231.737C446.017 231.36 443.126 230.397 440.964 228.846C438.802 227.294 437.133 224.803 435.981 221.418" fill="#043B4E" fill-opacity="0.1"/>
<path d="M439.789 317.573C440.612 314.282 442.069 311.72 444.114 309.91C446.182 308.101 448.979 306.855 452.552 306.197L533.945 291.389C537.635 290.661 540.667 290.919 543.065 292.165C545.462 293.411 547.155 295.22 548.095 297.594C549.035 299.968 549.152 302.671 548.377 305.703C547.437 309.464 530.396 376.967 529.503 380.539C528.822 383.289 527.482 385.405 525.484 386.909C523.51 388.413 521.206 389.095 518.621 388.977C516.035 388.86 513.238 387.637 510.23 385.334L445.618 333.696C442.798 331.416 440.894 329.042 439.907 326.575C438.943 324.083 438.896 321.098 439.766 317.62" fill="#043B4E" fill-opacity="0.1"/>
<path d="M390.736 400.353C393.227 398.026 395.813 396.687 398.539 396.263C401.242 395.864 404.297 396.334 407.635 397.721L484.046 429.451C487.524 430.838 489.945 432.694 491.285 435.045C492.625 437.395 493.071 439.816 492.578 442.354C492.084 444.869 490.697 447.196 488.418 449.312C485.597 451.944 427.613 504.922 425.145 505.11C422.677 505.298 420.374 504.616 418.259 503.112C416.143 501.608 414.451 499.069 413.182 495.497L386.905 417.041C385.753 413.609 385.447 410.577 385.988 407.945C386.529 405.336 388.103 402.798 390.712 400.353" fill="#043B4E" fill-opacity="0.1"/>
<path d="M304.665 443.506C308.003 442.895 310.941 443.177 313.432 444.305C315.947 445.433 318.227 447.478 320.295 450.463L367.35 518.507C369.536 521.562 370.546 524.43 370.405 527.132C370.264 529.835 369.324 532.115 367.538 533.972C365.752 535.829 363.331 537.028 360.275 537.568C356.468 538.25 287.954 550.566 284.311 551.224C281.514 551.717 279.046 551.388 276.86 550.19C274.674 549.015 273.1 547.205 272.159 544.807C271.196 542.386 271.149 539.331 272.018 535.641L292.42 455.469C293.313 451.967 294.7 449.241 296.556 447.337C298.413 445.433 301.116 444.14 304.642 443.506" fill="#043B4E" fill-opacity="0.1"/>
<path d="M208.887 433.282C212.037 434.575 214.34 436.385 215.844 438.688C217.348 440.991 218.171 443.953 218.289 447.572L221.18 530.235C221.368 533.972 220.686 536.957 219.088 539.167C217.513 541.376 215.468 542.763 212.977 543.374C210.485 543.961 207.806 543.679 204.915 542.481C201.342 541 137.012 514.394 133.604 512.983C130.995 511.902 129.092 510.281 127.893 508.095C126.694 505.909 126.342 503.558 126.835 501.02C127.329 498.482 128.927 495.873 131.677 493.24L192.129 436.761C194.785 434.293 197.417 432.741 200.003 432.154C202.612 431.543 205.549 431.919 208.887 433.306" fill="#043B4E" fill-opacity="0.1"/>
<path d="M133.886 372.877C135.837 375.674 136.8 378.447 136.824 381.173C136.824 383.923 135.931 386.861 134.097 389.987L91.8609 461.11C90.0041 464.353 87.7948 466.492 85.2799 467.503C82.7649 468.514 80.2971 468.584 77.8762 467.738C75.4553 466.892 73.3634 465.2 71.5771 462.638C69.3678 459.465 29.5993 402.303 27.5075 399.295C25.8857 396.968 25.1571 394.571 25.3451 392.103C25.5096 389.635 26.4968 387.449 28.2831 385.569C30.0694 383.688 32.8428 382.372 36.5564 381.62L117.927 366.742C121.499 366.107 124.531 366.225 127.046 367.118C129.561 368.011 131.841 369.939 133.886 372.877Z" fill="#043B4E" fill-opacity="0.1"/>
<path d="M103.613 281.612C103.731 285.02 103.049 287.864 101.568 290.191C100.088 292.518 97.7372 294.468 94.4937 296.09L20.3861 332.827C17.0486 334.542 14.0636 335.13 11.4077 334.613C8.75172 334.096 6.63638 332.803 5.06162 330.782C3.48687 328.761 2.64073 326.175 2.54671 323.073C2.42919 319.194 0.125819 249.623 0.00830026 245.957C-0.085715 243.113 0.6194 240.715 2.10014 238.741C3.58088 236.767 5.60221 235.474 8.11712 234.863C10.632 234.252 13.664 234.651 17.1896 236.061L93.577 267.815C96.9146 269.225 99.406 270.988 101.028 273.103C102.649 275.219 103.519 278.086 103.637 281.659" fill="#043B4E" fill-opacity="0.1"/>
<path d="M127.728 188.466C125.965 191.38 123.85 193.402 121.358 194.553C118.867 195.705 115.811 196.058 112.215 195.658L30.0224 186.257C26.2853 185.881 23.4413 184.752 21.514 182.872C19.5632 180.992 18.482 178.759 18.2705 176.22C18.0354 173.659 18.7406 171.05 20.3388 168.37C22.3366 165.056 58.18 105.38 60.0838 102.23C61.541 99.8095 63.4448 98.1643 65.7717 97.2946C68.0986 96.4485 70.496 96.4485 72.9404 97.2946C75.3848 98.1643 77.7116 100.139 79.921 103.218L126.811 171.355C128.856 174.34 129.984 177.184 130.196 179.84C130.407 182.496 129.585 185.363 127.751 188.442" fill="#043B4E" fill-opacity="0.1"/>
</svg>
