<svg width="455" height="152" viewBox="0 0 455 152" fill="none" xmlns="http://www.w3.org/2000/svg">
<path d="M186.486 6.67482C186.486 4.89873 187.341 4.01068 189.053 4.01068H199.139C200.915 4.01068 201.803 4.89873 201.803 6.67482V68.5205C201.803 70.2966 200.915 71.1846 199.139 71.1846H189.053C187.341 71.1846 186.486 70.2966 186.486 68.5205V6.67482Z" fill="white"/>
<path d="M252.331 68.7149C252.331 70.3614 251.507 71.1911 249.855 71.1911H240.436C238.79 71.1911 237.96 70.3679 237.96 68.7149V39.2214C237.96 36.6221 237.532 34.6839 236.676 33.4199C235.821 32.1494 234.375 31.5142 232.346 31.5142C227.589 31.5142 225.21 34.7163 225.21 41.1271V68.7214C225.21 70.3679 224.354 71.1976 222.643 71.1976H213.224C211.578 71.1976 210.748 70.3744 210.748 68.7214V22.1865C210.748 20.4752 211.571 19.6195 213.224 19.6195H221.69C223.336 19.6195 224.257 20.3196 224.451 21.7133L224.924 25.1423C227.653 20.8252 231.964 18.6732 237.863 18.6732C247.508 18.6732 252.324 24.507 252.324 36.1813V68.7214L252.331 68.7149Z" fill="white"/>
<path d="M301.808 68.7149C301.808 70.3614 300.985 71.1911 299.332 71.1911H289.914C288.267 71.1911 287.438 70.3679 287.438 68.7149V39.2214C287.438 36.6221 287.01 34.6839 286.154 33.4199C285.299 32.1494 283.853 31.5142 281.824 31.5142C277.066 31.5142 274.687 34.7163 274.687 41.1271V68.7214C274.687 70.3679 273.832 71.1976 272.12 71.1976H262.702C261.056 71.1976 260.226 70.3744 260.226 68.7214V22.1865C260.226 20.4752 261.049 19.6195 262.702 19.6195H271.168C272.814 19.6195 273.735 20.3196 273.929 21.7133L274.402 25.1423C277.131 20.8252 281.442 18.6732 287.34 18.6732C296.986 18.6732 301.802 24.507 301.802 36.1813V68.7214L301.808 68.7149Z" fill="white"/>
<path d="M344.435 59.102C346.211 58.4668 347.261 59.0372 347.579 60.8133L348.622 66.4268C348.875 67.8204 348.24 68.8705 346.717 69.5706C342.724 71.2819 338.154 72.1375 333.013 72.1375C324.703 72.1375 318.519 69.9466 314.462 65.5711C310.404 61.1957 308.375 54.4414 308.375 45.3016C308.375 27.5407 315.609 18.6602 330.071 18.6602C343.709 18.6602 350.528 26.7823 350.528 43.0199V48.251C350.528 50.0271 349.608 50.9151 347.767 50.9151H322.551C323.31 57.7019 327.212 61.0985 334.252 61.0985C337.804 61.0985 341.2 60.4308 344.435 59.102ZM324.502 32.2661C323.264 34.1719 322.519 37.3416 322.266 41.7818H337.298V40.829C337.298 33.219 334.919 29.414 330.161 29.414C327.627 29.414 325.734 30.3669 324.502 32.2661Z" fill="white"/>
<path d="M368.315 19.6131C369.838 19.6131 370.694 20.4039 370.882 21.992L371.355 27.3203C372.308 25.1618 373.799 23.2625 375.827 21.6096C377.856 19.9631 380.268 19.1334 383.061 19.1334C384.014 19.1334 384.663 19.3214 385.013 19.7038C385.363 20.0863 385.538 20.7215 385.538 21.6096V32.3634C385.538 33.8218 384.838 34.5543 383.444 34.5543C383.126 34.5543 382.634 34.509 381.966 34.4117C381.298 34.3145 380.715 34.2691 380.209 34.2691C377.545 34.2691 375.439 35.2868 373.883 37.3157C372.327 39.3446 371.549 42.0411 371.549 45.4054V68.715C371.549 70.3614 370.726 71.1911 369.073 71.1911H359.655C358.008 71.1911 357.178 70.3679 357.178 68.715V22.1865C357.178 20.4752 358.002 19.6196 359.655 19.6196H368.315V19.6131Z" fill="white"/>
<path d="M201.997 146.947C200.286 146.947 199.145 145.994 198.575 144.095L182.778 82.82C182.272 80.7911 182.966 79.7734 184.872 79.7734H195.716C197.363 79.7734 198.38 80.629 198.763 82.3403L206.282 116.877L208.849 131.053H209.134L211.701 116.877L219.22 82.3403C219.603 80.629 220.614 79.7734 222.267 79.7734H233.111C235.017 79.7734 235.711 80.7911 235.205 82.82L219.408 144.095C218.967 145.994 217.82 146.947 215.986 146.947H201.997Z" fill="white"/>
<path d="M255.468 88.2389C255.468 89.8854 254.645 90.7151 252.992 90.7151H243.191C241.603 90.7151 240.812 89.8919 240.812 88.2389V82.4375C240.812 80.7262 241.603 79.8705 243.191 79.8705H252.992C254.645 79.8705 255.468 80.7262 255.468 82.4375V88.2389ZM255.371 144.471C255.371 146.118 254.548 146.947 252.895 146.947H243.379C241.732 146.947 240.903 146.124 240.903 144.471V97.9426C240.903 96.2313 241.726 95.3757 243.379 95.3757H252.895C254.541 95.3757 255.371 96.2313 255.371 97.9426V144.471Z" fill="white"/>
<path d="M277.546 147.894C272.218 147.894 267.589 147.194 263.655 145.8C262.196 145.359 261.561 144.406 261.755 142.948L262.708 136.57C262.896 134.923 263.882 134.379 265.658 134.956C268.387 135.908 271.589 136.382 275.271 136.382C280.346 136.382 282.881 134.988 282.881 132.194C282.881 131.241 282.498 130.386 281.74 129.627C280.981 128.869 280.152 128.247 279.264 127.773C278.376 127.3 276.852 126.587 274.694 125.634C273.041 124.934 271.919 124.429 271.317 124.111C270.714 123.793 269.748 123.268 268.413 122.542C267.084 121.81 266.131 121.097 265.56 120.403C264.99 119.703 264.342 118.835 263.609 117.784C262.883 116.741 262.371 115.516 262.086 114.122C261.801 112.728 261.658 111.14 261.658 109.364C261.658 99.4077 267.777 94.423 280.022 94.423C284.909 94.423 289.188 95.0582 292.869 96.3287C294.328 96.7695 294.931 97.7224 294.678 99.1808L293.725 105.462C293.537 107.108 292.617 107.685 290.964 107.173C288.047 106.35 285.221 105.935 282.498 105.935C280.152 105.935 278.44 106.233 277.358 106.836C276.282 107.439 275.744 108.47 275.744 109.928C275.744 111.263 276.379 112.352 277.643 113.208C278.914 114.064 281.163 115.224 284.397 116.682C288.65 118.523 291.806 120.585 293.868 122.866C295.929 125.148 296.96 128.447 296.96 132.758C296.96 142.844 290.491 147.887 277.552 147.887" fill="white"/>
<path d="M302.567 97.9427C302.567 96.2314 303.39 95.3758 305.043 95.3758H314.462C316.108 95.3758 316.938 96.2314 316.938 97.9427V127.443C316.938 130.042 317.353 131.993 318.176 133.296C318.999 134.599 320.425 135.247 322.46 135.247C324.742 135.247 326.486 134.424 327.691 132.771C328.897 131.125 329.5 128.836 329.5 125.919V97.9427C329.5 96.2314 330.323 95.3758 331.976 95.3758H341.395C343.048 95.3758 343.871 96.2314 343.871 97.9427V144.471C343.871 146.118 343.048 146.947 341.395 146.947H332.923C331.276 146.947 330.356 146.247 330.161 144.854L329.779 141.431C327.05 145.742 322.927 147.9 317.411 147.9C307.513 147.9 302.567 142.319 302.567 131.15V97.9427Z" fill="white"/>
<path d="M390.678 144.471C390.678 146.118 389.855 146.947 388.202 146.947H380.592C379.004 146.947 378.116 146.247 377.928 144.854L377.545 141.522C374.816 145.58 370.311 147.609 364.037 147.609C359.72 147.609 356.284 146.306 353.711 143.706C351.144 141.107 349.86 137.302 349.86 132.285C349.86 129.491 350.288 127.086 351.144 125.051C351.999 123.015 353.16 121.388 354.618 120.15C356.077 118.912 357.995 117.934 360.374 117.201C362.753 116.475 365.21 115.963 367.751 115.678C370.285 115.393 373.332 115.218 376.884 115.153V112.391C376.884 110.233 376.268 108.664 375.03 107.679C373.792 106.694 371.809 106.201 369.086 106.201C365.664 106.201 361.761 106.933 357.38 108.392C355.603 108.897 354.592 108.327 354.333 106.681L353.289 100.211C353.037 98.753 353.607 97.7677 355.001 97.2621C359.629 95.4212 365.022 94.5007 371.173 94.5007C377.96 94.5007 382.906 95.849 386.017 98.5456C389.122 101.242 390.678 105.443 390.678 111.153V144.458V144.471ZM376.884 123.443C372.126 123.573 368.73 124.156 366.701 125.206C364.672 126.25 363.654 128.298 363.654 131.345C363.654 135.468 365.463 137.529 369.08 137.529C371.744 137.529 373.708 136.706 374.978 135.053C376.249 133.406 376.884 131.215 376.884 128.486V123.443Z" fill="white"/>
<path d="M401.425 79.767H410.941C412.309 79.767 413.417 80.8754 413.417 82.2431V144.471C413.417 145.839 412.309 146.947 410.941 146.947H401.425C400.058 146.947 398.949 145.839 398.949 144.471V82.2431C398.949 80.8754 400.058 79.767 401.425 79.767Z" fill="white"/>
<path d="M435.586 147.894C430.258 147.894 425.63 147.194 421.695 145.8C420.237 145.359 419.601 144.406 419.796 142.948L420.749 136.57C420.937 134.923 421.922 134.379 423.698 134.956C426.427 135.908 429.629 136.382 433.311 136.382C438.386 136.382 440.921 134.988 440.921 132.194C440.921 131.241 440.538 130.386 439.78 129.627C439.022 128.869 438.192 128.247 437.304 127.773C436.416 127.3 434.893 126.587 432.734 125.634C431.081 124.934 429.96 124.429 429.357 124.111C428.754 123.793 427.788 123.268 426.453 122.542C425.124 121.81 424.171 121.097 423.601 120.403C423.03 119.703 422.382 118.835 421.65 117.784C420.924 116.741 420.412 115.516 420.126 114.122C419.841 112.728 419.698 111.14 419.698 109.364C419.698 99.4077 425.818 94.423 438.062 94.423C442.95 94.423 447.228 95.0582 450.91 96.3287C452.368 96.7695 452.971 97.7224 452.718 99.1808L451.765 105.462C451.577 107.108 450.657 107.685 449.004 107.173C446.087 106.35 443.261 105.935 440.538 105.935C438.192 105.935 436.481 106.233 435.398 106.836C434.322 107.439 433.784 108.47 433.784 109.928C433.784 111.263 434.419 112.352 435.683 113.208C436.954 114.064 439.203 115.224 442.438 116.682C446.69 118.523 449.847 120.585 451.908 122.866C453.969 125.148 455 128.447 455 132.758C455 142.844 448.531 147.887 435.593 147.887" fill="white"/>
<path d="M54.2704 34.0487C53.4342 34.4765 52.6434 34.6386 51.8915 34.5414C51.1395 34.4441 50.3746 34.0811 49.5903 33.4653L31.7516 19.2436C30.9348 18.6084 30.4357 17.9342 30.2542 17.2082C30.0727 16.4822 30.144 15.8081 30.4681 15.1793C30.7922 14.5506 31.3367 14.0385 32.1016 13.6496C33.0545 13.1634 50.1672 4.45795 51.0682 3.99772C51.7618 3.64121 52.4489 3.53749 53.1166 3.67362C53.7842 3.81622 54.3417 4.16626 54.789 4.72372C55.2362 5.28118 55.489 6.08496 55.5538 7.13506L56.5456 29.9261C56.5845 30.9243 56.4354 31.7541 56.0983 32.4087C55.7613 33.0634 55.1455 33.6144 54.2639 34.0617" fill="white"/>
<path d="M80.38 29.1806C79.4465 29.0899 78.6946 28.7982 78.1112 28.3055C77.5343 27.8194 77.0806 27.0999 76.7565 26.1535L69.4252 4.54867C69.0752 3.57635 69.0233 2.73368 69.2632 2.02713C69.503 1.32058 69.9308 0.789052 70.5401 0.432537C71.1495 0.0760216 71.8819 -0.0601024 72.7376 0.0241649C73.8006 0.127878 92.9034 2.04658 93.9146 2.14381C94.6924 2.22159 95.3212 2.50032 95.8138 2.98C96.3 3.45968 96.5787 4.05603 96.6565 4.76906C96.7278 5.48209 96.5074 6.29235 96.0018 7.20633L84.5285 26.9249C84.0229 27.787 83.4525 28.4028 82.8107 28.7723C82.169 29.1417 81.3588 29.2714 80.3735 29.1741" fill="white"/>
<path d="M104.973 39.1825C104.241 38.5991 103.761 37.9444 103.541 37.2184C103.32 36.4924 103.327 35.6433 103.567 34.6775L109.109 12.5476C109.342 11.5429 109.757 10.8039 110.34 10.3437C110.924 9.87696 111.572 9.66305 112.279 9.69546C112.985 9.72787 113.672 10.0131 114.346 10.5446C115.183 11.2058 130.202 23.1652 130.999 23.8005C131.608 24.2867 131.991 24.8636 132.14 25.5312C132.289 26.1989 132.205 26.8536 131.88 27.4888C131.556 28.1241 130.928 28.6945 130.007 29.1871L109.679 39.5455C108.785 39.9992 107.974 40.2067 107.235 40.1678C106.497 40.1289 105.745 39.8048 104.973 39.189" fill="white"/>
<path d="M120.245 60.8846C119.947 59.9966 119.895 59.1863 120.103 58.4603C120.31 57.7343 120.777 57.0213 121.503 56.3342L138.142 40.7253C138.888 40.0058 139.627 39.6104 140.372 39.5391C141.111 39.4678 141.772 39.6363 142.349 40.0447C142.926 40.4531 143.354 41.0624 143.626 41.8791C143.97 42.8903 150.121 61.0791 150.445 62.0384C150.698 62.7774 150.705 63.471 150.471 64.1127C150.238 64.7544 149.81 65.2536 149.194 65.6166C148.578 65.9796 147.742 66.1157 146.699 66.0249L123.998 63.7303C123.007 63.6266 122.209 63.3608 121.613 62.933C121.017 62.5052 120.556 61.8181 120.239 60.8846" fill="white"/>
<path d="M121.289 87.4028C121.516 86.4954 121.918 85.7888 122.482 85.2897C123.052 84.7906 123.823 84.447 124.809 84.2655L147.256 80.1818C148.274 79.9809 149.11 80.0521 149.771 80.3957C150.432 80.7393 150.899 81.2384 151.158 81.8931C151.418 82.5478 151.45 83.2932 151.236 84.1294C150.977 85.1665 146.277 103.783 146.031 104.768C145.843 105.527 145.474 106.11 144.923 106.525C144.378 106.94 143.743 107.128 143.03 107.095C142.317 107.063 141.546 106.726 140.716 106.091L122.897 91.8496C122.119 91.2208 121.594 90.5661 121.321 89.8855C121.056 89.1984 121.043 88.3752 121.282 87.4158" fill="white"/>
<path d="M107.76 110.233C108.448 109.591 109.161 109.222 109.913 109.105C110.658 108.995 111.501 109.124 112.421 109.507L133.494 118.258C134.454 118.64 135.121 119.152 135.491 119.8C135.86 120.449 135.983 121.116 135.847 121.816C135.711 122.51 135.329 123.152 134.7 123.735C133.922 124.461 117.931 139.072 117.25 139.124C116.57 139.175 115.934 138.987 115.351 138.573C114.768 138.158 114.301 137.458 113.951 136.472L106.704 114.835C106.386 113.889 106.302 113.053 106.451 112.327C106.6 111.607 107.034 110.907 107.754 110.233" fill="white"/>
<path d="M84.0234 122.134C84.9439 121.965 85.7541 122.043 86.4412 122.354C87.1348 122.665 87.7636 123.229 88.334 124.053L101.311 142.818C101.914 143.661 102.193 144.452 102.154 145.197C102.115 145.943 101.856 146.571 101.363 147.083C100.87 147.596 100.203 147.926 99.36 148.075C98.3099 148.263 79.4146 151.66 78.4099 151.841C77.6385 151.977 76.9579 151.887 76.3551 151.556C75.7523 151.232 75.318 150.733 75.0587 150.072C74.7929 149.404 74.7799 148.561 75.0198 147.544L80.6462 125.433C80.8926 124.467 81.275 123.716 81.7871 123.19C82.2992 122.665 83.0446 122.309 84.0169 122.134" fill="white"/>
<path d="M57.6087 119.314C58.4773 119.671 59.1126 120.17 59.5274 120.805C59.9423 121.44 60.1691 122.257 60.2015 123.255L60.9988 146.053C61.0507 147.083 60.8627 147.907 60.4219 148.516C59.9876 149.125 59.4237 149.508 58.7366 149.676C58.0495 149.838 57.3105 149.761 56.5132 149.43C55.528 149.022 37.7865 141.684 36.8466 141.295C36.1271 140.997 35.602 140.55 35.2714 139.947C34.9408 139.344 34.8436 138.696 34.9797 137.996C35.1158 137.296 35.5566 136.576 36.315 135.85L52.987 120.274C53.7195 119.593 54.4455 119.165 55.1585 119.003C55.878 118.835 56.6883 118.938 57.6087 119.321" fill="white"/>
<path d="M36.9242 102.655C37.4622 103.426 37.728 104.191 37.7345 104.943C37.7345 105.702 37.4882 106.512 36.9826 107.374L25.3342 126.989C24.8222 127.883 24.2128 128.473 23.5193 128.752C22.8257 129.031 22.1451 129.05 21.4774 128.817C20.8097 128.584 20.2328 128.117 19.7402 127.41C19.1309 126.535 8.16318 110.771 7.58627 109.941C7.13901 109.299 6.93806 108.638 6.98992 107.957C7.03529 107.277 7.30754 106.674 7.80018 106.155C8.29282 105.637 9.05771 105.274 10.0819 105.066L32.5229 100.963C33.5082 100.788 34.3444 100.821 35.0379 101.067C35.7315 101.313 36.3603 101.845 36.9242 102.655Z" fill="white"/>
<path d="M28.5754 77.4852C28.6078 78.4251 28.4198 79.2095 28.0114 79.8512C27.603 80.4929 26.9548 81.031 26.0603 81.4782L5.62226 91.6097C4.70181 92.0829 3.87858 92.245 3.1461 92.1024C2.41363 91.9598 1.83024 91.6032 1.39594 91.0458C0.961639 90.4883 0.728284 89.7753 0.702355 88.9197C0.669945 87.8501 0.0346996 68.6631 0.00228912 67.6519C-0.0236393 66.8676 0.170824 66.2064 0.579196 65.6619C0.987568 65.1174 1.54503 64.7609 2.23861 64.5924C2.9322 64.4238 3.76839 64.534 4.7407 64.9229L25.8075 73.6803C26.728 74.0692 27.4151 74.5553 27.8623 75.1387C28.3096 75.7221 28.5494 76.5129 28.5818 77.4982" fill="white"/>
<path d="M35.2259 51.7967C34.7398 52.6005 34.1564 53.158 33.4693 53.4756C32.7822 53.7932 31.9395 53.8904 30.9477 53.7802L8.27984 51.1874C7.24919 51.0837 6.46485 50.7726 5.93332 50.254C5.39531 49.7354 5.09713 49.1196 5.03879 48.4196C4.97397 47.713 5.16843 46.9935 5.60922 46.2545C6.16019 45.3406 16.0454 28.8825 16.5704 28.0139C16.9723 27.3463 17.4974 26.8925 18.1391 26.6527C18.7808 26.4193 19.442 26.4193 20.1161 26.6527C20.7903 26.8925 21.432 27.437 22.0413 28.2862L34.9731 47.0778C35.5371 47.901 35.8482 48.6853 35.9065 49.4178C35.9649 50.1503 35.738 50.9411 35.2324 51.7902" fill="white"/>
</svg>
