<svg width="271" height="65" viewBox="0 0 271 65" fill="none" xmlns="http://www.w3.org/2000/svg">
<path d="M58.1997 2.08291C58.1997 1.52861 58.4667 1.25146 59.0008 1.25146H62.1486C62.7029 1.25146 62.98 1.52861 62.98 2.08291V21.3842C62.98 21.9385 62.7029 22.2157 62.1486 22.2157H59.0008C58.4667 22.2157 58.1997 21.9385 58.1997 21.3842V2.08291Z" fill="white"/>
<path d="M78.7499 21.4451C78.7499 21.9589 78.493 22.2179 77.9771 22.2179H75.0377C74.5239 22.2179 74.2649 21.9609 74.2649 21.4451V12.2405C74.2649 11.4293 74.1314 10.8244 73.8644 10.4299C73.5974 10.0334 73.1462 9.83517 72.513 9.83517C71.0282 9.83517 70.2857 10.8345 70.2857 12.8353V21.4471C70.2857 21.9609 70.0187 22.2199 69.4846 22.2199H66.5452C66.0314 22.2199 65.7725 21.963 65.7725 21.4471V6.92409C65.7725 6.39003 66.0294 6.12299 66.5452 6.12299H69.1873C69.7011 6.12299 69.9884 6.34148 70.049 6.77642L70.1967 7.84658C71.0484 6.49927 72.3937 5.82764 74.2346 5.82764C77.2448 5.82764 78.7479 7.64832 78.7479 11.2917V21.4471L78.7499 21.4451Z" fill="white"/>
<path d="M94.1913 21.4451C94.1913 21.9589 93.9344 22.2179 93.4185 22.2179H90.4791C89.9653 22.2179 89.7064 21.9609 89.7064 21.4451V12.2405C89.7064 11.4293 89.5728 10.8244 89.3058 10.4299C89.0388 10.0334 88.5876 9.83517 87.9545 9.83517C86.4696 9.83517 85.7271 10.8345 85.7271 12.8353V21.4471C85.7271 21.9609 85.4601 22.2199 84.926 22.2199H81.9866C81.4728 22.2199 81.2139 21.963 81.2139 21.4471V6.92409C81.2139 6.39003 81.4708 6.12299 81.9866 6.12299H84.6287C85.1425 6.12299 85.4298 6.34148 85.4905 6.77642L85.6381 7.84658C86.4898 6.49927 87.8351 5.82764 89.676 5.82764C92.6862 5.82764 94.1893 7.64832 94.1893 11.2917V21.4471L94.1913 21.4451Z" fill="white"/>
<path d="M107.494 18.4451C108.048 18.2469 108.376 18.4249 108.475 18.9792L108.8 20.7311C108.879 21.166 108.681 21.4938 108.206 21.7123C106.96 22.2463 105.533 22.5134 103.929 22.5134C101.336 22.5134 99.4057 21.8296 98.1393 20.4641C96.8729 19.0986 96.2397 16.9906 96.2397 14.1382C96.2397 8.59522 98.4974 5.82373 103.011 5.82373C107.267 5.82373 109.395 8.35853 109.395 13.4261V15.0587C109.395 15.613 109.108 15.8901 108.533 15.8901H100.664C100.901 18.0082 102.119 19.0682 104.315 19.0682C105.424 19.0682 106.484 18.8598 107.494 18.4451ZM101.273 10.07C100.887 10.6647 100.654 11.654 100.575 13.0397H105.266V12.7423C105.266 10.3674 104.524 9.17986 103.039 9.17986C102.248 9.17986 101.657 9.47724 101.273 10.07Z" fill="white"/>
<path d="M114.947 6.12089C115.422 6.12089 115.689 6.3677 115.748 6.86333L115.895 8.52622C116.193 7.85257 116.658 7.25983 117.291 6.74397C117.925 6.23013 118.677 5.97119 119.549 5.97119C119.846 5.97119 120.049 6.02986 120.158 6.14921C120.267 6.26857 120.322 6.46682 120.322 6.74397V10.1001C120.322 10.5553 120.103 10.7839 119.668 10.7839C119.569 10.7839 119.415 10.7697 119.207 10.7394C118.999 10.709 118.817 10.6949 118.659 10.6949C117.827 10.6949 117.17 11.0125 116.684 11.6457C116.199 12.2789 115.956 13.1204 115.956 14.1703V21.445C115.956 21.9588 115.699 22.2178 115.183 22.2178H112.244C111.73 22.2178 111.471 21.9609 111.471 21.445V6.92402C111.471 6.38995 111.728 6.12292 112.244 6.12292H114.947V6.12089Z" fill="white"/>
<path d="M63.0407 45.8607C62.5066 45.8607 62.1506 45.5633 61.9725 44.9706L57.0425 25.8473C56.8847 25.2141 57.1012 24.8965 57.696 24.8965H61.0804C61.5943 24.8965 61.9119 25.1635 62.0312 25.6976L64.3779 36.4761L65.179 40.9003H65.268L66.0691 36.4761L68.4158 25.6976C68.5351 25.1635 68.8507 24.8965 69.3666 24.8965H72.751C73.3458 24.8965 73.5622 25.2141 73.4044 25.8473L68.4744 44.9706C68.3369 45.5633 67.9788 45.8607 67.4063 45.8607H63.0407Z" fill="white"/>
<path d="M79.7278 27.5384C79.7278 28.0523 79.4709 28.3112 78.955 28.3112H75.8962C75.4006 28.3112 75.1538 28.0543 75.1538 27.5384V25.7279C75.1538 25.1938 75.4006 24.9268 75.8962 24.9268H78.955C79.4709 24.9268 79.7278 25.1938 79.7278 25.7279V27.5384ZM79.6974 45.0878C79.6974 45.6017 79.4405 45.8606 78.9247 45.8606H75.9549C75.4411 45.8606 75.1821 45.6037 75.1821 45.0878V30.5668C75.1821 30.0328 75.4391 29.7657 75.9549 29.7657H78.9247C79.4385 29.7657 79.6974 30.0328 79.6974 30.5668V45.0878Z" fill="white"/>
<path d="M86.619 46.1559C84.9561 46.1559 83.5117 45.9374 82.2837 45.5024C81.8286 45.3649 81.6303 45.0675 81.691 44.6123L81.9884 42.6217C82.047 42.1079 82.3545 41.9379 82.9088 42.118C83.7605 42.4154 84.7599 42.563 85.9089 42.563C87.4929 42.563 88.2839 42.1281 88.2839 41.2562C88.2839 40.9588 88.1645 40.6918 87.9279 40.4551C87.6912 40.2184 87.4322 40.0242 87.1551 39.8765C86.8779 39.7288 86.4025 39.5063 85.7289 39.2089C85.213 38.9905 84.863 38.8327 84.6749 38.7335C84.4868 38.6344 84.1853 38.4705 83.7686 38.244C83.3539 38.0154 83.0565 37.7928 82.8785 37.5764C82.7005 37.3579 82.4982 37.0868 82.2696 36.7591C82.043 36.4334 81.8832 36.0511 81.7942 35.6161C81.7052 35.1812 81.6606 34.6855 81.6606 34.1312C81.6606 31.0239 83.5703 29.4683 87.3918 29.4683C88.9171 29.4683 90.2523 29.6665 91.4013 30.063C91.8565 30.2006 92.0446 30.498 91.9657 30.9531L91.6684 32.9134C91.6097 33.4272 91.3224 33.6073 90.8066 33.4475C89.8962 33.1906 89.0142 33.0611 88.1645 33.0611C87.4322 33.0611 86.8982 33.1541 86.5603 33.3423C86.2245 33.5304 86.0566 33.8521 86.0566 34.3072C86.0566 34.724 86.2548 35.0638 86.6493 35.3309C87.0458 35.5979 87.7478 35.96 88.7573 36.4152C90.0844 36.9897 91.0695 37.633 91.7129 38.3451C92.3562 39.0572 92.6778 40.0869 92.6778 41.4322C92.6778 44.58 90.6589 46.1538 86.621 46.1538" fill="white"/>
<path d="M94.4268 30.5667C94.4268 30.0327 94.6837 29.7656 95.1995 29.7656H98.1389C98.6528 29.7656 98.9117 30.0327 98.9117 30.5667V39.7733C98.9117 40.5845 99.0412 41.1935 99.2981 41.6001C99.555 42.0067 100 42.209 100.635 42.209C101.347 42.209 101.892 41.9521 102.268 41.4362C102.644 40.9224 102.832 40.2083 102.832 39.2979V30.5667C102.832 30.0327 103.089 29.7656 103.605 29.7656H106.544C107.06 29.7656 107.317 30.0327 107.317 30.5667V45.0877C107.317 45.6015 107.06 45.8605 106.544 45.8605H103.9C103.387 45.8605 103.099 45.642 103.039 45.2071L102.919 44.1389C102.068 45.4842 100.781 46.1579 99.0594 46.1579C95.9703 46.1579 94.4268 44.4161 94.4268 40.9305V30.5667Z" fill="white"/>
<path d="M121.926 45.0879C121.926 45.6017 121.669 45.8606 121.153 45.8606H118.778C118.282 45.8606 118.005 45.6422 117.947 45.2072L117.827 44.1674C116.976 45.4338 115.57 46.067 113.611 46.067C112.264 46.067 111.192 45.6604 110.389 44.8492C109.588 44.0379 109.187 42.8504 109.187 41.2847C109.187 40.4128 109.321 39.6622 109.588 39.027C109.855 38.3918 110.217 37.884 110.672 37.4976C111.127 37.1112 111.726 36.8058 112.468 36.5772C113.211 36.3506 113.977 36.1908 114.77 36.1018C115.561 36.0128 116.512 35.9581 117.621 35.9379V35.0761C117.621 34.4025 117.429 33.9129 117.042 33.6054C116.656 33.2979 116.037 33.1442 115.187 33.1442C114.119 33.1442 112.901 33.3728 111.534 33.8279C110.979 33.9857 110.664 33.8077 110.583 33.2939L110.257 31.2749C110.178 30.8198 110.356 30.5123 110.791 30.3545C112.236 29.7799 113.919 29.4927 115.839 29.4927C117.957 29.4927 119.5 29.9135 120.471 30.755C121.44 31.5966 121.926 32.9075 121.926 34.6897V45.0838V45.0879ZM117.621 38.5253C116.136 38.5658 115.076 38.7478 114.443 39.0756C113.81 39.4013 113.492 40.0405 113.492 40.9913C113.492 42.2779 114.056 42.9213 115.185 42.9213C116.017 42.9213 116.63 42.6643 117.026 42.1485C117.423 41.6346 117.621 40.9509 117.621 40.0992V38.5253Z" fill="white"/>
<path d="M125.281 24.8945H128.25C128.677 24.8945 129.023 25.2405 129.023 25.6673V45.088C129.023 45.5148 128.677 45.8607 128.25 45.8607H125.281C124.854 45.8607 124.508 45.5148 124.508 45.088V25.6673C124.508 25.2405 124.854 24.8945 125.281 24.8945Z" fill="white"/>
<path d="M135.941 46.1559C134.278 46.1559 132.834 45.9374 131.606 45.5024C131.151 45.3649 130.953 45.0675 131.013 44.6123L131.311 42.6217C131.369 42.1079 131.677 41.9379 132.231 42.118C133.083 42.4154 134.082 42.563 135.231 42.563C136.815 42.563 137.606 42.1281 137.606 41.2562C137.606 40.9588 137.487 40.6918 137.25 40.4551C137.013 40.2184 136.754 40.0242 136.477 39.8765C136.2 39.7288 135.725 39.5063 135.051 39.2089C134.535 38.9905 134.185 38.8327 133.997 38.7335C133.809 38.6344 133.508 38.4705 133.091 38.244C132.676 38.0154 132.379 37.7928 132.201 37.5764C132.023 37.3579 131.82 37.0868 131.592 36.7591C131.365 36.4334 131.205 36.0511 131.116 35.6161C131.027 35.1812 130.983 34.6855 130.983 34.1312C130.983 31.0239 132.893 29.4683 136.714 29.4683C138.239 29.4683 139.575 29.6665 140.724 30.063C141.179 30.2006 141.367 30.498 141.288 30.9531L140.991 32.9134C140.932 33.4272 140.645 33.6073 140.129 33.4475C139.218 33.1906 138.336 33.0611 137.487 33.0611C136.754 33.0611 136.22 33.1541 135.883 33.3423C135.547 33.5304 135.379 33.8521 135.379 34.3072C135.379 34.724 135.577 35.0638 135.972 35.3309C136.368 35.5979 137.07 35.96 138.08 36.4152C139.407 36.9897 140.392 37.633 141.035 38.3451C141.678 39.0572 142 40.0869 142 41.4322C142 44.58 139.981 46.1538 135.943 46.1538" fill="white"/>
<path d="M16.9373 10.6261C16.6763 10.7596 16.4295 10.8102 16.1948 10.7799C15.9602 10.7495 15.7215 10.6362 15.4767 10.444L9.90943 6.00562C9.65454 5.80737 9.49876 5.59698 9.44212 5.3704C9.38548 5.14383 9.40773 4.93344 9.50888 4.73721C9.61003 4.54098 9.77996 4.38116 10.0187 4.25978C10.3161 4.10806 15.6567 1.39119 15.9379 1.24756C16.1544 1.1363 16.3688 1.10393 16.5772 1.14641C16.7856 1.19092 16.9595 1.30016 17.0991 1.47413C17.2387 1.64811 17.3176 1.89896 17.3378 2.22668L17.6473 9.3395C17.6595 9.65104 17.613 9.90998 17.5078 10.1143C17.4026 10.3186 17.2104 10.4906 16.9353 10.6302" fill="white"/>
<path d="M25.0851 9.10693C24.7938 9.0786 24.5592 8.98757 24.3771 8.83382C24.197 8.6821 24.0554 8.45755 23.9543 8.16219L21.6663 1.41958C21.5571 1.11614 21.5409 0.853149 21.6157 0.632644C21.6906 0.412138 21.8241 0.246254 22.0142 0.13499C22.2044 0.0237254 22.433 -0.0187572 22.7 0.00754157C23.0318 0.0399093 28.9935 0.638713 29.3091 0.669058C29.5519 0.693333 29.7481 0.780322 29.9019 0.930023C30.0536 1.07972 30.1406 1.26584 30.1649 1.48837C30.1871 1.71089 30.1183 1.96377 29.9605 2.24901L26.3798 8.40293C26.2221 8.67198 26.044 8.86417 25.8438 8.97948C25.6435 9.09479 25.3906 9.13525 25.0831 9.1049" fill="white"/>
<path d="M32.7601 12.2285C32.5316 12.0464 32.3818 11.8421 32.3131 11.6155C32.2443 11.3889 32.2463 11.1239 32.3212 10.8225L34.0508 3.91601C34.1236 3.60245 34.2531 3.37183 34.4352 3.2282C34.6172 3.08254 34.8195 3.01579 35.04 3.0259C35.2606 3.03601 35.475 3.12503 35.6854 3.29091C35.9463 3.49726 40.6336 7.22966 40.8824 7.42792C41.0726 7.57964 41.1919 7.75969 41.2385 7.96805C41.285 8.17642 41.2587 8.38074 41.1576 8.57899C41.0564 8.77725 40.8602 8.95527 40.5729 9.10902L34.2288 12.3417C33.9497 12.4834 33.6968 12.5481 33.4662 12.536C33.2355 12.5238 33.0009 12.4227 32.7601 12.2305" fill="white"/>
<path d="M37.527 19.0016C37.4339 18.7245 37.4177 18.4716 37.4825 18.245C37.5472 18.0184 37.6929 17.7959 37.9194 17.5815L43.1124 12.7101C43.3451 12.4856 43.5757 12.3622 43.8083 12.3399C44.039 12.3177 44.2453 12.3703 44.4253 12.4977C44.6054 12.6252 44.7389 12.8153 44.8239 13.0702C44.9311 13.3858 46.8509 19.0623 46.9521 19.3617C47.031 19.5923 47.033 19.8088 46.9601 20.0091C46.8873 20.2093 46.7538 20.3651 46.5616 20.4784C46.3694 20.5917 46.1085 20.6342 45.7828 20.6058L38.6983 19.8897C38.3888 19.8573 38.1399 19.7744 37.9538 19.6409C37.7677 19.5074 37.6241 19.2929 37.5249 19.0016" fill="white"/>
<path d="M37.8531 27.2776C37.9239 26.9944 38.0494 26.7739 38.2254 26.6181C38.4034 26.4623 38.6441 26.3551 38.9516 26.2985L45.9572 25.024C46.2748 24.9613 46.5358 24.9835 46.7421 25.0907C46.9485 25.1979 47.0941 25.3537 47.1751 25.558C47.256 25.7624 47.2661 25.995 47.1993 26.256C47.1184 26.5796 45.6517 32.3897 45.5749 32.6972C45.5162 32.9338 45.4009 33.1159 45.2289 33.2454C45.059 33.3749 44.8608 33.4335 44.6382 33.4234C44.4157 33.4133 44.175 33.3081 43.916 33.1098L38.3548 28.6653C38.1121 28.4691 37.9482 28.2648 37.8632 28.0524C37.7803 27.8379 37.7763 27.581 37.8511 27.2816" fill="white"/>
<path d="M33.6302 34.4024C33.8446 34.2021 34.0671 34.0868 34.3018 34.0504C34.5344 34.016 34.7974 34.0564 35.0847 34.1758L41.6614 36.9068C41.9608 37.0262 42.1692 37.186 42.2845 37.3883C42.3998 37.5906 42.4382 37.799 42.3957 38.0175C42.3533 38.2339 42.2339 38.4342 42.0377 38.6163C41.7949 38.8428 36.8042 43.4026 36.5918 43.4188C36.3794 43.435 36.1811 43.3763 35.9991 43.2469C35.817 43.1174 35.6713 42.8989 35.5621 42.5914L33.3004 35.8387C33.2013 35.5433 33.175 35.2824 33.2215 35.0558C33.268 34.8312 33.4036 34.6128 33.6281 34.4024" fill="white"/>
<path d="M26.223 38.1165C26.5103 38.0639 26.7632 38.0882 26.9776 38.1853C27.1941 38.2824 27.3903 38.4584 27.5683 38.7153L31.6183 44.5719C31.8065 44.8348 31.8935 45.0816 31.8813 45.3143C31.8692 45.5469 31.7883 45.7432 31.6345 45.903C31.4808 46.0628 31.2724 46.166 31.0094 46.2125C30.6817 46.2712 24.7847 47.3312 24.4711 47.3879C24.2304 47.4303 24.018 47.402 23.8299 47.2988C23.6417 47.1977 23.5062 47.0419 23.4253 46.8356C23.3423 46.6272 23.3383 46.3642 23.4131 46.0466L25.1691 39.1462C25.2459 38.8448 25.3653 38.6101 25.5251 38.4463C25.6849 38.2824 25.9176 38.1711 26.221 38.1165" fill="white"/>
<path d="M17.9793 37.2367C18.2503 37.348 18.4486 37.5037 18.5781 37.702C18.7075 37.9002 18.7783 38.1551 18.7885 38.4667L19.0373 45.5815C19.0535 45.9032 18.9948 46.1601 18.8572 46.3502C18.7217 46.5404 18.5457 46.6598 18.3313 46.7124C18.1168 46.7629 17.8862 46.7387 17.6374 46.6355C17.3299 46.508 11.793 44.218 11.4996 44.0966C11.2751 44.0036 11.1112 43.864 11.0081 43.6759C10.9049 43.4877 10.8745 43.2854 10.917 43.0669C10.9595 42.8485 11.0971 42.6239 11.3338 42.3973L16.5369 37.5361C16.7655 37.3237 16.992 37.1902 17.2146 37.1396C17.4391 37.087 17.692 37.1194 17.9793 37.2387" fill="white"/>
<path d="M11.5238 32.0375C11.6917 32.2782 11.7747 32.517 11.7767 32.7516C11.7767 32.9883 11.6998 33.2412 11.542 33.5102L7.90674 39.6318C7.74692 39.911 7.55676 40.0951 7.3403 40.182C7.12384 40.269 6.91143 40.2751 6.70306 40.2023C6.4947 40.1294 6.31465 39.9838 6.1609 39.7633C5.97074 39.4902 2.54785 34.5703 2.36781 34.3113C2.22822 34.1111 2.16551 33.9047 2.18169 33.6923C2.19585 33.4799 2.28082 33.2918 2.43456 33.1299C2.58831 32.9681 2.82702 32.8548 3.14665 32.7901L10.1502 31.5095C10.4577 31.4549 10.7187 31.465 10.9351 31.5419C11.1516 31.6188 11.3478 31.7846 11.5238 32.0375Z" fill="white"/>
<path d="M8.91803 24.1823C8.92815 24.4757 8.86948 24.7204 8.74203 24.9207C8.61458 25.121 8.41229 25.2889 8.13311 25.4285L1.75464 28.5904C1.46738 28.7381 1.21046 28.7887 0.981862 28.7442C0.753265 28.6997 0.571196 28.5884 0.435656 28.4144C0.300116 28.2404 0.227289 28.0179 0.219197 27.7509C0.209082 27.4171 0.0108293 21.4291 0.000714407 21.1135C-0.00737753 20.8687 0.053312 20.6623 0.18076 20.4924C0.308208 20.3225 0.482185 20.2112 0.698644 20.1586C0.915104 20.106 1.17607 20.1404 1.47952 20.2618L8.05422 22.9948C8.34148 23.1162 8.55592 23.2679 8.6955 23.45C8.83509 23.6321 8.90994 23.8789 8.92005 24.1864" fill="white"/>
<path d="M10.9937 16.165C10.842 16.4158 10.6599 16.5898 10.4455 16.6889C10.231 16.788 9.96804 16.8184 9.65852 16.784L2.58414 15.9748C2.26249 15.9424 2.01771 15.8453 1.85182 15.6835C1.68391 15.5217 1.59086 15.3295 1.57265 15.111C1.55242 14.8905 1.61311 14.6659 1.75067 14.4353C1.92263 14.1501 5.00768 9.01371 5.17154 8.74263C5.29696 8.53426 5.46083 8.39265 5.6611 8.3178C5.86138 8.24498 6.06772 8.24498 6.27811 8.3178C6.4885 8.39265 6.68878 8.56259 6.87894 8.8276L10.9148 14.6922C11.0908 14.9491 11.1879 15.1939 11.2061 15.4225C11.2243 15.6511 11.1535 15.8979 10.9957 16.1629" fill="white"/>
<path d="M1.30398 57.1818V63H0.772727V57.1818H1.30398ZM3.25142 60.2727V63H2.74574V58.6364H3.23722V59.321H3.28267C3.38494 59.0975 3.54403 58.9186 3.75994 58.7841C3.97775 58.6477 4.24669 58.5795 4.56676 58.5795C4.86032 58.5795 5.1179 58.6411 5.33949 58.7642C5.56297 58.8854 5.73627 59.0644 5.85938 59.3011C5.98438 59.5379 6.04688 59.8286 6.04688 60.1733V63H5.54119V60.2045C5.54119 59.8466 5.44081 59.5634 5.24006 59.3551C5.04119 59.1468 4.77415 59.0426 4.43892 59.0426C4.20975 59.0426 4.00616 59.0919 3.82812 59.1903C3.65009 59.2888 3.509 59.4309 3.40483 59.6165C3.30256 59.8002 3.25142 60.0189 3.25142 60.2727ZM7.88423 60.2727V63H7.37855V58.6364H7.87003V59.321H7.91548C8.01776 59.0975 8.17685 58.9186 8.39276 58.7841C8.61056 58.6477 8.8795 58.5795 9.19957 58.5795C9.49313 58.5795 9.75071 58.6411 9.9723 58.7642C10.1958 58.8854 10.3691 59.0644 10.4922 59.3011C10.6172 59.5379 10.6797 59.8286 10.6797 60.1733V63H10.174V60.2045C10.174 59.8466 10.0736 59.5634 9.87287 59.3551C9.67401 59.1468 9.40696 59.0426 9.07173 59.0426C8.84257 59.0426 8.63897 59.0919 8.46094 59.1903C8.28291 59.2888 8.14181 59.4309 8.03764 59.6165C7.93537 59.8002 7.88423 60.0189 7.88423 60.2727ZM13.7756 63.0909C13.3684 63.0909 13.0161 62.9962 12.7188 62.8068C12.4214 62.6155 12.1913 62.3513 12.0284 62.0142C11.8674 61.6752 11.7869 61.285 11.7869 60.8438C11.7869 60.4044 11.8674 60.0142 12.0284 59.6733C12.1913 59.3305 12.4157 59.0625 12.7017 58.8693C12.9896 58.6742 13.322 58.5767 13.6989 58.5767C13.9356 58.5767 14.1638 58.6203 14.3835 58.7074C14.6032 58.7926 14.8002 58.9242 14.9744 59.1023C15.1506 59.2784 15.2898 59.5009 15.392 59.7699C15.4943 60.0369 15.5455 60.3532 15.5455 60.7188V60.9688H12.1364V60.5227H15.0284C15.0284 60.2424 14.9716 59.9905 14.858 59.767C14.7462 59.5417 14.59 59.3636 14.3892 59.233C14.1903 59.1023 13.9602 59.0369 13.6989 59.0369C13.4223 59.0369 13.179 59.1108 12.9688 59.2585C12.7585 59.4062 12.5938 59.6013 12.4744 59.8438C12.357 60.0862 12.2973 60.3513 12.2955 60.6392V60.9062C12.2955 61.2528 12.3551 61.5559 12.4744 61.8153C12.5956 62.0729 12.767 62.2727 12.9886 62.4148C13.2102 62.5568 13.4725 62.6278 13.7756 62.6278C13.982 62.6278 14.1629 62.5956 14.3182 62.5312C14.4754 62.4669 14.607 62.3807 14.7131 62.2727C14.821 62.1629 14.9025 62.0426 14.9574 61.9119L15.4375 62.0682C15.3712 62.2519 15.2623 62.4214 15.1108 62.5767C14.9612 62.732 14.7737 62.857 14.5483 62.9517C14.3248 63.0445 14.0672 63.0909 13.7756 63.0909ZM16.6598 63V58.6364H17.1513V59.3068H17.1882C17.2753 59.0871 17.4268 58.91 17.6428 58.7756C17.8606 58.6392 18.1068 58.571 18.3814 58.571C18.4231 58.571 18.4695 58.572 18.5206 58.5739C18.5717 58.5758 18.6143 58.5777 18.6484 58.5795V59.0938C18.6257 59.09 18.5859 59.0843 18.5291 59.0767C18.4723 59.0691 18.4107 59.0653 18.3445 59.0653C18.1172 59.0653 17.9145 59.1136 17.7365 59.2102C17.5604 59.3049 17.4212 59.4366 17.3189 59.6051C17.2166 59.7737 17.1655 59.9659 17.1655 60.1818V63H16.6598ZM21.875 57.1818L23.6932 62.3097H23.7443L25.5625 57.1818H26.1193L24.0028 63H23.4347L21.3182 57.1818H21.875ZM27.017 63V58.6364H27.5256V63H27.017ZM27.2756 57.8864C27.1714 57.8864 27.0824 57.8513 27.0085 57.7812C26.9347 57.7093 26.8977 57.6231 26.8977 57.5227C26.8977 57.4223 26.9347 57.3371 27.0085 57.267C27.0824 57.1951 27.1714 57.1591 27.2756 57.1591C27.3797 57.1591 27.4688 57.1951 27.5426 57.267C27.6165 57.3371 27.6534 57.4223 27.6534 57.5227C27.6534 57.6231 27.6165 57.7093 27.5426 57.7812C27.4688 57.8513 27.3797 57.8864 27.2756 57.8864ZM31.7947 59.5938L31.3317 59.7244C31.2862 59.5937 31.2218 59.4754 31.1385 59.3693C31.0552 59.2633 30.9463 59.179 30.8118 59.1165C30.6792 59.054 30.5144 59.0227 30.3175 59.0227C30.022 59.0227 29.7796 59.0928 29.5902 59.233C29.4008 59.3731 29.3061 59.554 29.3061 59.7756C29.3061 59.9631 29.3705 60.1155 29.4993 60.233C29.63 60.3485 29.8307 60.4403 30.1016 60.5085L30.7607 60.6705C31.1262 60.7595 31.3999 60.9006 31.5817 61.0938C31.7654 61.2869 31.8572 61.5294 31.8572 61.821C31.8572 62.0672 31.7891 62.286 31.6527 62.4773C31.5163 62.6686 31.326 62.8191 31.0817 62.929C30.8393 63.0369 30.558 63.0909 30.2379 63.0909C29.8118 63.0909 29.4605 62.9953 29.1839 62.804C28.9074 62.6108 28.7304 62.3324 28.6527 61.9688L29.1385 61.8494C29.201 62.1089 29.3232 62.3049 29.505 62.4375C29.6887 62.5701 29.9302 62.6364 30.2294 62.6364C30.5646 62.6364 30.8326 62.5616 31.0334 62.4119C31.2341 62.2604 31.3345 62.071 31.3345 61.8438C31.3345 61.6676 31.2758 61.5199 31.1584 61.4006C31.041 61.2794 30.8629 61.1903 30.6243 61.1335L29.9112 60.9631C29.5324 60.8722 29.2521 60.7282 29.0703 60.5312C28.8885 60.3343 28.7976 60.09 28.7976 59.7983C28.7976 59.5578 28.8629 59.3466 28.9936 59.1648C29.1243 58.9811 29.3042 58.8371 29.5334 58.733C29.7625 58.6288 30.0239 58.5767 30.3175 58.5767C30.7171 58.5767 31.0362 58.6676 31.2749 58.8494C31.5154 59.0294 31.6887 59.2775 31.7947 59.5938ZM35.7372 61.3324V58.6364H36.2429V63H35.7372V62.2756H35.6974C35.5952 62.4991 35.4332 62.6856 35.2116 62.8352C34.9901 62.983 34.7192 63.0568 34.3991 63.0568C34.1207 63.0568 33.8736 62.9962 33.6577 62.875C33.4418 62.7519 33.2723 62.572 33.1491 62.3352C33.026 62.0985 32.9645 61.8078 32.9645 61.4631V58.6364H33.4702V61.4318C33.4702 61.7727 33.5705 62.0473 33.7713 62.2557C33.9721 62.4621 34.2296 62.5653 34.544 62.5653C34.741 62.5653 34.9304 62.518 35.1122 62.4233C35.294 62.3286 35.4437 62.1903 35.5611 62.0085C35.6785 61.8248 35.7372 61.5994 35.7372 61.3324ZM38.8004 63.0994C38.5372 63.0994 38.2966 63.0483 38.0788 62.946C37.861 62.8419 37.6877 62.6922 37.5589 62.4972C37.4302 62.3002 37.3658 62.0616 37.3658 61.7812C37.3658 61.5653 37.4065 61.3835 37.4879 61.2358C37.5694 61.0881 37.6849 60.9669 37.8345 60.8722C37.9841 60.7775 38.1612 60.7027 38.3658 60.6477C38.5703 60.5928 38.7957 60.5502 39.0419 60.5199C39.2862 60.4896 39.4927 60.4631 39.6612 60.4403C39.8317 60.4176 39.9614 60.3816 40.0504 60.3324C40.1394 60.2831 40.1839 60.2036 40.1839 60.0938V59.9915C40.1839 59.6941 40.0949 59.4602 39.9169 59.2898C39.7408 59.1174 39.487 59.0312 39.1555 59.0312C38.8411 59.0312 38.5845 59.1004 38.3857 59.2386C38.1887 59.3769 38.0504 59.5398 37.9709 59.7273L37.4908 59.554C37.5893 59.3153 37.7256 59.125 37.8999 58.983C38.0741 58.839 38.2692 58.7358 38.4851 58.6733C38.701 58.6089 38.9197 58.5767 39.1413 58.5767C39.308 58.5767 39.4813 58.5985 39.6612 58.642C39.843 58.6856 40.0116 58.7614 40.1669 58.8693C40.3222 58.9754 40.4482 59.1241 40.5447 59.3153C40.6413 59.5047 40.6896 59.7453 40.6896 60.0369V63H40.1839V62.3097H40.1527C40.0921 62.4384 40.0021 62.5634 39.8828 62.6847C39.7635 62.8059 39.6139 62.9053 39.4339 62.983C39.254 63.0606 39.0429 63.0994 38.8004 63.0994ZM38.8686 62.6364C39.1375 62.6364 39.3705 62.5767 39.5675 62.4574C39.7644 62.3381 39.916 62.1799 40.022 61.983C40.13 61.7841 40.1839 61.5653 40.1839 61.3267V60.696C40.1461 60.732 40.0826 60.7642 39.9936 60.7926C39.9065 60.821 39.8052 60.8466 39.6896 60.8693C39.576 60.8902 39.4624 60.9081 39.3487 60.9233C39.2351 60.9384 39.1328 60.9517 39.0419 60.9631C38.7957 60.9934 38.5855 61.0407 38.4112 61.1051C38.237 61.1695 38.1035 61.2585 38.0107 61.3722C37.9179 61.4839 37.8714 61.6278 37.8714 61.804C37.8714 62.0691 37.9661 62.2746 38.1555 62.4205C38.3449 62.5644 38.5826 62.6364 38.8686 62.6364ZM42.5405 57.1818V63H42.0348V57.1818H42.5405ZM46.8104 59.5938L46.3473 59.7244C46.3018 59.5937 46.2375 59.4754 46.1541 59.3693C46.0708 59.2633 45.9619 59.179 45.8274 59.1165C45.6948 59.054 45.5301 59.0227 45.3331 59.0227C45.0376 59.0227 44.7952 59.0928 44.6058 59.233C44.4164 59.3731 44.3217 59.554 44.3217 59.7756C44.3217 59.9631 44.3861 60.1155 44.5149 60.233C44.6456 60.3485 44.8464 60.4403 45.1172 60.5085L45.7763 60.6705C46.1418 60.7595 46.4155 60.9006 46.5973 61.0938C46.781 61.2869 46.8729 61.5294 46.8729 61.821C46.8729 62.0672 46.8047 62.286 46.6683 62.4773C46.532 62.6686 46.3416 62.8191 46.0973 62.929C45.8549 63.0369 45.5736 63.0909 45.2536 63.0909C44.8274 63.0909 44.4761 62.9953 44.1996 62.804C43.9231 62.6108 43.746 62.3324 43.6683 61.9688L44.1541 61.8494C44.2166 62.1089 44.3388 62.3049 44.5206 62.4375C44.7043 62.5701 44.9458 62.6364 45.245 62.6364C45.5803 62.6364 45.8482 62.5616 46.049 62.4119C46.2498 62.2604 46.3501 62.071 46.3501 61.8438C46.3501 61.6676 46.2914 61.5199 46.174 61.4006C46.0566 61.2794 45.8786 61.1903 45.6399 61.1335L44.9268 60.9631C44.5481 60.8722 44.2678 60.7282 44.0859 60.5312C43.9041 60.3343 43.8132 60.09 43.8132 59.7983C43.8132 59.5578 43.8786 59.3466 44.0092 59.1648C44.1399 58.9811 44.3198 58.8371 44.549 58.733C44.7782 58.6288 45.0395 58.5767 45.3331 58.5767C45.7327 58.5767 46.0518 58.6676 46.2905 58.8494C46.531 59.0294 46.7043 59.2775 46.8104 59.5938ZM54.892 59H54.358C54.3182 58.8011 54.2462 58.6174 54.142 58.4489C54.0398 58.2784 53.911 58.1297 53.7557 58.0028C53.6004 57.8759 53.4242 57.7775 53.2273 57.7074C53.0303 57.6373 52.8172 57.6023 52.5881 57.6023C52.2206 57.6023 51.8854 57.6979 51.5824 57.8892C51.2813 58.0805 51.0398 58.3617 50.858 58.733C50.678 59.1023 50.5881 59.5549 50.5881 60.0909C50.5881 60.6307 50.678 61.0852 50.858 61.4545C51.0398 61.8239 51.2813 62.1042 51.5824 62.2955C51.8854 62.4848 52.2206 62.5795 52.5881 62.5795C52.8172 62.5795 53.0303 62.5445 53.2273 62.4744C53.4242 62.4044 53.6004 62.3068 53.7557 62.1818C53.911 62.0549 54.0398 61.9062 54.142 61.7358C54.2462 61.5653 54.3182 61.3807 54.358 61.1818H54.892C54.8447 61.4489 54.7557 61.6979 54.625 61.929C54.4962 62.1581 54.3314 62.3589 54.1307 62.5312C53.9318 62.7036 53.7027 62.8381 53.4432 62.9347C53.1837 63.0312 52.8987 63.0795 52.5881 63.0795C52.0994 63.0795 51.6657 62.9574 51.2869 62.7131C50.9081 62.4669 50.6108 62.1203 50.3949 61.6733C50.1809 61.2263 50.0739 60.6989 50.0739 60.0909C50.0739 59.483 50.1809 58.9555 50.3949 58.5085C50.6108 58.0616 50.9081 57.7159 51.2869 57.4716C51.6657 57.2254 52.0994 57.1023 52.5881 57.1023C52.8987 57.1023 53.1837 57.1506 53.4432 57.2472C53.7027 57.3419 53.9318 57.4763 54.1307 57.6506C54.3314 57.8229 54.4962 58.0237 54.625 58.2528C54.7557 58.482 54.8447 58.7311 54.892 59ZM57.7308 63.0909C57.3539 63.0909 57.0206 62.9953 56.7308 62.804C56.4429 62.6127 56.2176 62.3485 56.0547 62.0114C55.8918 61.6723 55.8104 61.2812 55.8104 60.8381C55.8104 60.3911 55.8918 59.9981 56.0547 59.6591C56.2176 59.3182 56.4429 59.053 56.7308 58.8636C57.0206 58.6723 57.3539 58.5767 57.7308 58.5767C58.1077 58.5767 58.4401 58.6723 58.728 58.8636C59.0159 59.0549 59.2412 59.3201 59.4041 59.6591C59.5689 59.9981 59.6513 60.3911 59.6513 60.8381C59.6513 61.2812 59.5698 61.6723 59.407 62.0114C59.2441 62.3485 59.0178 62.6127 58.728 62.804C58.4401 62.9953 58.1077 63.0909 57.7308 63.0909ZM57.7308 62.6278C58.0339 62.6278 58.2905 62.5464 58.5007 62.3835C58.7109 62.2206 58.87 62.0038 58.978 61.733C59.0878 61.4621 59.1428 61.1638 59.1428 60.8381C59.1428 60.5123 59.0878 60.2131 58.978 59.9403C58.87 59.6676 58.7109 59.4489 58.5007 59.2841C58.2905 59.1193 58.0339 59.0369 57.7308 59.0369C57.4297 59.0369 57.1731 59.1193 56.9609 59.2841C56.7507 59.4489 56.5907 59.6676 56.4808 59.9403C56.3729 60.2131 56.3189 60.5123 56.3189 60.8381C56.3189 61.1638 56.3729 61.4621 56.4808 61.733C56.5907 62.0038 56.7507 62.2206 56.9609 62.3835C57.1712 62.5464 57.4278 62.6278 57.7308 62.6278ZM60.7614 64.6364V58.6364H61.2528V59.4688H61.3125C61.3731 59.3381 61.4564 59.2045 61.5625 59.0682C61.6686 58.9299 61.8087 58.8134 61.983 58.7188C62.1591 58.6241 62.3807 58.5767 62.6477 58.5767C63.0076 58.5767 63.322 58.6714 63.5909 58.8608C63.8617 59.0483 64.072 59.3116 64.2216 59.6506C64.3731 59.9877 64.4489 60.3807 64.4489 60.8295C64.4489 61.2803 64.3731 61.6752 64.2216 62.0142C64.072 62.3532 63.8617 62.6174 63.5909 62.8068C63.322 62.9962 63.0095 63.0909 62.6534 63.0909C62.3902 63.0909 62.1695 63.0436 61.9915 62.9489C61.8153 62.8542 61.6723 62.7377 61.5625 62.5994C61.4545 62.4593 61.3712 62.3229 61.3125 62.1903H61.267V64.6364H60.7614ZM61.2614 60.821C61.2614 61.1733 61.3134 61.4858 61.4176 61.7585C61.5237 62.0294 61.6752 62.2424 61.8722 62.3977C62.071 62.5511 62.3116 62.6278 62.5938 62.6278C62.8835 62.6278 63.1278 62.5483 63.3267 62.3892C63.5275 62.2282 63.6799 62.0114 63.7841 61.7386C63.8902 61.4659 63.9432 61.16 63.9432 60.821C63.9432 60.4858 63.8911 60.1837 63.7869 59.9148C63.6847 59.6458 63.5331 59.4328 63.3324 59.2756C63.1316 59.1165 62.8854 59.0369 62.5938 59.0369C62.3097 59.0369 62.0682 59.1136 61.8693 59.267C61.6705 59.4186 61.5189 59.6288 61.4148 59.8977C61.3125 60.1648 61.2614 60.4725 61.2614 60.821ZM65.7543 64.6364C65.6539 64.6364 65.5601 64.6269 65.473 64.608C65.3859 64.589 65.3168 64.5682 65.2656 64.5455L65.402 64.0994C65.5743 64.1525 65.7277 64.1714 65.8622 64.1562C65.9967 64.143 66.116 64.0824 66.2202 63.9744C66.3243 63.8684 66.4171 63.7055 66.4986 63.4858L66.6577 63.0426L65.0526 58.6364H65.6009L66.8963 62.3324H66.9361L68.2315 58.6364H68.7798L66.9332 63.6903C66.8556 63.9006 66.7599 64.0758 66.6463 64.2159C66.5327 64.358 66.401 64.4631 66.2514 64.5312C66.1037 64.6013 65.938 64.6364 65.7543 64.6364ZM69.7692 63V58.6364H70.2607V59.3068H70.2976C70.3847 59.0871 70.5362 58.91 70.7521 58.7756C70.9699 58.6392 71.2161 58.571 71.4908 58.571C71.5324 58.571 71.5788 58.572 71.63 58.5739C71.6811 58.5758 71.7237 58.5777 71.7578 58.5795V59.0938C71.7351 59.09 71.6953 59.0843 71.6385 59.0767C71.5817 59.0691 71.5201 59.0653 71.4538 59.0653C71.2266 59.0653 71.0239 59.1136 70.8459 59.2102C70.6697 59.3049 70.5305 59.4366 70.4283 59.6051C70.326 59.7737 70.2749 59.9659 70.2749 60.1818V63H69.7692ZM72.6264 63V58.6364H73.1349V63H72.6264ZM72.8849 57.8864C72.7808 57.8864 72.6918 57.8513 72.6179 57.7812C72.544 57.7093 72.5071 57.6231 72.5071 57.5227C72.5071 57.4223 72.544 57.3371 72.6179 57.267C72.6918 57.1951 72.7808 57.1591 72.8849 57.1591C72.9891 57.1591 73.0781 57.1951 73.152 57.267C73.2259 57.3371 73.2628 57.4223 73.2628 57.5227C73.2628 57.6231 73.2259 57.7093 73.152 57.7812C73.0781 57.8513 72.9891 57.8864 72.8849 57.8864ZM76.1371 64.7273C75.8397 64.7273 75.5793 64.6884 75.3558 64.6108C75.1323 64.535 74.9439 64.4309 74.7905 64.2983C74.6371 64.1657 74.5178 64.017 74.4325 63.8523L74.8473 63.5795C74.9098 63.6894 74.9931 63.7973 75.0973 63.9034C75.2034 64.0095 75.3407 64.0975 75.5092 64.1676C75.6797 64.2377 75.889 64.2727 76.1371 64.2727C76.5234 64.2727 76.835 64.1761 77.0717 63.983C77.3104 63.7898 77.4297 63.4896 77.4297 63.0824V62.0994H77.3842C77.3255 62.232 77.2412 62.3646 77.1314 62.4972C77.0215 62.6278 76.8776 62.7367 76.6996 62.8239C76.5234 62.911 76.3047 62.9545 76.0433 62.9545C75.6948 62.9545 75.3852 62.8684 75.1143 62.696C74.8454 62.5237 74.6333 62.2775 74.478 61.9574C74.3246 61.6354 74.2479 61.2519 74.2479 60.8068C74.2479 60.3655 74.3227 59.9773 74.4723 59.642C74.6238 59.3068 74.835 59.0455 75.1058 58.858C75.3767 58.6705 75.692 58.5767 76.0518 58.5767C76.3189 58.5767 76.5405 58.6241 76.7166 58.7188C76.8928 58.8116 77.0339 58.9271 77.1399 59.0653C77.2479 59.2036 77.3321 59.3381 77.3928 59.4688H77.4439V58.6364H77.9382V63.1136C77.9382 63.483 77.8596 63.7869 77.7024 64.0256C77.5452 64.2642 77.3312 64.4403 77.0604 64.554C76.7895 64.6695 76.4818 64.7273 76.1371 64.7273ZM76.103 62.4915C76.3833 62.4915 76.6229 62.4242 76.8217 62.2898C77.0206 62.1534 77.1731 61.9583 77.2791 61.7045C77.3852 61.4508 77.4382 61.1487 77.4382 60.7983C77.4382 60.4574 77.3861 60.1553 77.282 59.892C77.1778 59.6269 77.0263 59.4186 76.8274 59.267C76.6304 59.1136 76.389 59.0369 76.103 59.0369C75.8113 59.0369 75.5651 59.1155 75.3643 59.2727C75.1636 59.4299 75.0121 59.642 74.9098 59.9091C74.8075 60.1742 74.7564 60.4706 74.7564 60.7983C74.7564 61.1316 74.8085 61.4261 74.9126 61.6818C75.0168 61.9356 75.1693 62.1345 75.37 62.2784C75.5708 62.4205 75.8151 62.4915 76.103 62.4915ZM79.7827 60.2727V63H79.277V57.1818H79.7827V59.321H79.8281C79.9304 59.0956 80.0885 58.9157 80.3026 58.7812C80.5185 58.6468 80.7912 58.5795 81.1207 58.5795C81.4162 58.5795 81.6757 58.6402 81.8991 58.7614C82.1226 58.8826 82.2969 59.0616 82.4219 59.2983C82.5469 59.535 82.6094 59.8267 82.6094 60.1733V63H82.1009V60.2045C82.1009 59.8447 82.0005 59.5616 81.7997 59.3551C81.6009 59.1468 81.3319 59.0426 80.9929 59.0426C80.7599 59.0426 80.5526 59.0919 80.3707 59.1903C80.1889 59.2888 80.045 59.4309 79.9389 59.6165C79.8348 59.8002 79.7827 60.0189 79.7827 60.2727ZM85.6598 58.6364V59.0767H83.5774V58.6364H85.6598ZM84.228 57.5909H84.7365V61.8608C84.7365 62.0426 84.7678 62.1856 84.8303 62.2898C84.8928 62.392 84.9742 62.465 85.0746 62.5085C85.175 62.5502 85.282 62.571 85.3956 62.571C85.4619 62.571 85.5187 62.5672 85.5661 62.5597C85.6134 62.5502 85.6551 62.5407 85.6911 62.5312L85.799 62.9886C85.7498 63.0076 85.6892 63.0246 85.6172 63.0398C85.5452 63.0568 85.4562 63.0653 85.3501 63.0653C85.1645 63.0653 84.9856 63.0246 84.8132 62.9432C84.6428 62.8617 84.5026 62.7405 84.3928 62.5795C84.2829 62.4186 84.228 62.2188 84.228 61.9801V57.5909ZM90.4077 60.0909C90.4077 59.7803 90.4834 59.4972 90.6349 59.2415C90.7865 58.9858 90.9901 58.7822 91.2457 58.6307C91.5014 58.4792 91.7846 58.4034 92.0952 58.4034C92.349 58.4034 92.5829 58.4555 92.7969 58.5597C93.0109 58.6638 93.1899 58.8068 93.3338 58.9886C93.4796 59.1686 93.5772 59.3741 93.6264 59.6051H93.098C93.0412 59.3987 92.92 59.2301 92.7344 59.0994C92.5488 58.9687 92.3357 58.9034 92.0952 58.9034C91.8774 58.9034 91.6785 58.9574 91.4986 59.0653C91.3187 59.1714 91.1747 59.3144 91.0668 59.4943C90.9607 59.6723 90.9077 59.8712 90.9077 60.0909C90.9077 60.3087 90.9607 60.5076 91.0668 60.6875C91.1747 60.8674 91.3187 61.0114 91.4986 61.1193C91.6785 61.2254 91.8774 61.2784 92.0952 61.2784C92.3357 61.2784 92.5421 61.2131 92.7145 61.0824C92.8868 60.9517 93.0024 60.7831 93.0611 60.5767H93.5866C93.5393 60.8078 93.4465 61.0142 93.3082 61.196C93.17 61.3759 92.9967 61.518 92.7884 61.6222C92.58 61.7263 92.349 61.7784 92.0952 61.7784C91.7846 61.7784 91.5014 61.7027 91.2457 61.5511C90.9901 61.3996 90.7865 61.196 90.6349 60.9403C90.4834 60.6847 90.4077 60.4015 90.4077 60.0909ZM92.0497 63.0909C91.6368 63.0909 91.2486 63.0133 90.8849 62.858C90.5232 62.7027 90.2041 62.4877 89.9276 62.2131C89.6529 61.9366 89.437 61.6174 89.2798 61.2557C89.1245 60.8939 89.0478 60.5057 89.0497 60.0909C89.0516 59.6761 89.1302 59.2879 89.2855 58.9261C89.4427 58.5644 89.6586 58.2462 89.9332 57.9716C90.2079 57.6951 90.526 57.4792 90.8878 57.3239C91.2495 57.1686 91.6368 57.0909 92.0497 57.0909C92.4645 57.0909 92.8527 57.1686 93.2145 57.3239C93.5781 57.4792 93.8963 57.6951 94.169 57.9716C94.4437 58.2462 94.6586 58.5644 94.8139 58.9261C94.9692 59.2879 95.0478 59.6761 95.0497 60.0909C95.0516 60.5057 94.9749 60.8939 94.8196 61.2557C94.6643 61.6174 94.4493 61.9366 94.1747 62.2131C93.9001 62.4877 93.581 62.7027 93.2173 62.858C92.8537 63.0133 92.4645 63.0909 92.0497 63.0909ZM92.0497 62.5909C92.3963 62.5909 92.7211 62.5265 93.0241 62.3977C93.3272 62.267 93.5923 62.0881 93.8196 61.8608C94.0488 61.6316 94.2277 61.3655 94.3565 61.0625C94.4872 60.7595 94.5516 60.4366 94.5497 60.0938C94.5478 59.7472 94.4815 59.4223 94.3509 59.1193C94.2221 58.8163 94.0431 58.5511 93.8139 58.3239C93.5866 58.0947 93.3224 57.9157 93.0213 57.7869C92.7202 57.6562 92.3963 57.5909 92.0497 57.5909C91.705 57.5909 91.3821 57.6562 91.081 57.7869C90.7798 57.9157 90.5147 58.0947 90.2855 58.3239C90.0582 58.553 89.8793 58.8191 89.7486 59.1222C89.6179 59.4233 89.5516 59.7472 89.5497 60.0938C89.5478 60.4366 89.6113 60.7595 89.7401 61.0625C89.8707 61.3636 90.0507 61.6288 90.2798 61.858C90.509 62.0852 90.7751 62.2642 91.0781 62.3949C91.3812 62.5256 91.705 62.5909 92.0497 62.5909ZM96.3587 63V62.6108L98.2592 60.4744C98.5073 60.1941 98.7071 59.9545 98.8587 59.7557C99.0102 59.5568 99.12 59.3731 99.1882 59.2045C99.2583 59.036 99.2933 58.8608 99.2933 58.679C99.2933 58.4574 99.2412 58.2642 99.1371 58.0994C99.0348 57.9328 98.8937 57.803 98.7138 57.7102C98.5339 57.6174 98.3312 57.571 98.1058 57.571C97.8672 57.571 97.6579 57.6222 97.478 57.7244C97.3 57.8267 97.1617 57.9669 97.0632 58.1449C96.9647 58.3229 96.9155 58.5275 96.9155 58.7585H96.407C96.407 58.4366 96.4808 58.1515 96.6286 57.9034C96.7782 57.6534 96.9818 57.4574 97.2393 57.3153C97.4988 57.1733 97.7924 57.1023 98.12 57.1023C98.4439 57.1023 98.7318 57.1723 98.9837 57.3125C99.2356 57.4508 99.4335 57.6392 99.5774 57.8778C99.7214 58.1165 99.7933 58.3835 99.7933 58.679C99.7933 58.893 99.7554 59.1004 99.6797 59.3011C99.6058 59.5019 99.478 59.7254 99.2962 59.9716C99.1143 60.2178 98.8625 60.5189 98.5405 60.875L97.0973 62.4858V62.5227H99.9751V63H96.3587ZM103.048 63.0795C102.639 63.0795 102.29 62.9621 102 62.7273C101.712 62.4905 101.491 62.1487 101.335 61.7017C101.182 61.2547 101.105 60.7178 101.105 60.0909C101.105 59.4659 101.182 58.9309 101.335 58.4858C101.491 58.0388 101.713 57.697 102.003 57.4602C102.295 57.2216 102.643 57.1023 103.048 57.1023C103.454 57.1023 103.801 57.2216 104.091 57.4602C104.383 57.697 104.605 58.0388 104.759 58.4858C104.914 58.9309 104.991 59.4659 104.991 60.0909C104.991 60.7178 104.914 61.2547 104.759 61.7017C104.605 62.1487 104.384 62.4905 104.094 62.7273C103.806 62.9621 103.457 63.0795 103.048 63.0795ZM103.048 62.6023C103.497 62.6023 103.848 62.3835 104.099 61.946C104.351 61.5066 104.477 60.8883 104.477 60.0909C104.477 59.5606 104.42 59.108 104.304 58.733C104.19 58.3561 104.027 58.0682 103.812 57.8693C103.6 57.6705 103.346 57.571 103.048 57.571C102.603 57.571 102.254 57.7926 102 58.2358C101.746 58.6771 101.619 59.2955 101.619 60.0909C101.619 60.6212 101.676 61.0739 101.79 61.4489C101.905 61.8239 102.069 62.1098 102.281 62.3068C102.495 62.5038 102.751 62.6023 103.048 62.6023ZM106.148 63V62.6108L108.048 60.4744C108.296 60.1941 108.496 59.9545 108.648 59.7557C108.799 59.5568 108.909 59.3731 108.977 59.2045C109.047 59.036 109.082 58.8608 109.082 58.679C109.082 58.4574 109.03 58.2642 108.926 58.0994C108.824 57.9328 108.683 57.803 108.503 57.7102C108.323 57.6174 108.12 57.571 107.895 57.571C107.656 57.571 107.447 57.6222 107.267 57.7244C107.089 57.8267 106.951 57.9669 106.852 58.1449C106.754 58.3229 106.705 58.5275 106.705 58.7585H106.196C106.196 58.4366 106.27 58.1515 106.418 57.9034C106.567 57.6534 106.771 57.4574 107.028 57.3153C107.288 57.1733 107.581 57.1023 107.909 57.1023C108.233 57.1023 108.521 57.1723 108.773 57.3125C109.025 57.4508 109.223 57.6392 109.366 57.8778C109.51 58.1165 109.582 58.3835 109.582 58.679C109.582 58.893 109.545 59.1004 109.469 59.3011C109.395 59.5019 109.267 59.7254 109.085 59.9716C108.903 60.2178 108.652 60.5189 108.33 60.875L106.886 62.4858V62.5227H109.764V63H106.148ZM110.766 61.75V61.3182L113.36 57.1818H113.678V57.9062H113.442L111.36 61.2358V61.2727H114.761V61.75H110.766ZM113.482 63V61.6136V61.4148V57.1818H113.988V63H113.482ZM118.97 55.3068V64.875H118.53V55.3068H118.97ZM121.439 55.3068V64.875H120.999V55.3068H121.439ZM125.124 57.6591V57.1818H129.342V57.6591H127.499V63H126.967V57.6591H125.124ZM131.496 63.0909C131.12 63.0909 130.786 62.9953 130.496 62.804C130.209 62.6127 129.983 62.3485 129.82 62.0114C129.657 61.6723 129.576 61.2812 129.576 60.8381C129.576 60.3911 129.657 59.9981 129.82 59.6591C129.983 59.3182 130.209 59.053 130.496 58.8636C130.786 58.6723 131.12 58.5767 131.496 58.5767C131.873 58.5767 132.206 58.6723 132.494 58.8636C132.781 59.0549 133.007 59.3201 133.17 59.6591C133.335 59.9981 133.417 60.3911 133.417 60.8381C133.417 61.2812 133.335 61.6723 133.173 62.0114C133.01 62.3485 132.783 62.6127 132.494 62.804C132.206 62.9953 131.873 63.0909 131.496 63.0909ZM131.496 62.6278C131.799 62.6278 132.056 62.5464 132.266 62.3835C132.477 62.2206 132.636 62.0038 132.744 61.733C132.853 61.4621 132.908 61.1638 132.908 60.8381C132.908 60.5123 132.853 60.2131 132.744 59.9403C132.636 59.6676 132.477 59.4489 132.266 59.2841C132.056 59.1193 131.799 59.0369 131.496 59.0369C131.195 59.0369 130.939 59.1193 130.727 59.2841C130.516 59.4489 130.356 59.6676 130.246 59.9403C130.138 60.2131 130.085 60.5123 130.085 60.8381C130.085 61.1638 130.138 61.4621 130.246 61.733C130.356 62.0038 130.516 62.2206 130.727 62.3835C130.937 62.5464 131.193 62.6278 131.496 62.6278ZM136.098 63.0909C135.74 63.0909 135.427 62.9962 135.158 62.8068C134.889 62.6174 134.679 62.3532 134.527 62.0142C134.377 61.6752 134.303 61.2803 134.303 60.8295C134.303 60.3807 134.377 59.9877 134.527 59.6506C134.679 59.3116 134.89 59.0483 135.161 58.8608C135.431 58.6714 135.747 58.5767 136.107 58.5767C136.372 58.5767 136.592 58.6241 136.768 58.7188C136.945 58.8116 137.086 58.9271 137.192 59.0653C137.298 59.2036 137.38 59.3381 137.439 59.4688H137.484V57.1818H137.993V63H137.499V62.1903H137.439C137.38 62.3229 137.297 62.4593 137.189 62.5994C137.081 62.7377 136.938 62.8542 136.76 62.9489C136.584 63.0436 136.363 63.0909 136.098 63.0909ZM136.158 62.6278C136.44 62.6278 136.68 62.5511 136.879 62.3977C137.078 62.2424 137.23 62.0294 137.334 61.7585C137.44 61.4858 137.493 61.1733 137.493 60.821C137.493 60.4725 137.441 60.1648 137.337 59.8977C137.232 59.6288 137.081 59.4186 136.882 59.267C136.683 59.1136 136.442 59.0369 136.158 59.0369C135.866 59.0369 135.62 59.1165 135.419 59.2756C135.22 59.4328 135.069 59.6458 134.964 59.9148C134.862 60.1837 134.811 60.4858 134.811 60.821C134.811 61.16 134.863 61.4659 134.967 61.7386C135.071 62.0114 135.223 62.2282 135.422 62.3892C135.623 62.5483 135.868 62.6278 136.158 62.6278ZM141.129 63.0909C140.752 63.0909 140.419 62.9953 140.129 62.804C139.841 62.6127 139.616 62.3485 139.453 62.0114C139.29 61.6723 139.209 61.2812 139.209 60.8381C139.209 60.3911 139.29 59.9981 139.453 59.6591C139.616 59.3182 139.841 59.053 140.129 58.8636C140.419 58.6723 140.752 58.5767 141.129 58.5767C141.506 58.5767 141.839 58.6723 142.126 58.8636C142.414 59.0549 142.64 59.3201 142.803 59.6591C142.967 59.9981 143.05 60.3911 143.05 60.8381C143.05 61.2812 142.968 61.6723 142.805 62.0114C142.643 62.3485 142.416 62.6127 142.126 62.804C141.839 62.9953 141.506 63.0909 141.129 63.0909ZM141.129 62.6278C141.432 62.6278 141.689 62.5464 141.899 62.3835C142.109 62.2206 142.268 62.0038 142.376 61.733C142.486 61.4621 142.541 61.1638 142.541 60.8381C142.541 60.5123 142.486 60.2131 142.376 59.9403C142.268 59.6676 142.109 59.4489 141.899 59.2841C141.689 59.1193 141.432 59.0369 141.129 59.0369C140.828 59.0369 140.571 59.1193 140.359 59.2841C140.149 59.4489 139.989 59.6676 139.879 59.9403C139.771 60.2131 139.717 60.5123 139.717 60.8381C139.717 61.1638 139.771 61.4621 139.879 61.733C139.989 62.0038 140.149 62.2206 140.359 62.3835C140.57 62.5464 140.826 62.6278 141.129 62.6278ZM147.092 59.5938L146.629 59.7244C146.583 59.5937 146.519 59.4754 146.435 59.3693C146.352 59.2633 146.243 59.179 146.109 59.1165C145.976 59.054 145.811 59.0227 145.614 59.0227C145.319 59.0227 145.076 59.0928 144.887 59.233C144.698 59.3731 144.603 59.554 144.603 59.7756C144.603 59.9631 144.667 60.1155 144.796 60.233C144.927 60.3485 145.128 60.4403 145.398 60.5085L146.058 60.6705C146.423 60.7595 146.697 60.9006 146.879 61.0938C147.062 61.2869 147.154 61.5294 147.154 61.821C147.154 62.0672 147.086 62.286 146.95 62.4773C146.813 62.6686 146.623 62.8191 146.379 62.929C146.136 63.0369 145.855 63.0909 145.535 63.0909C145.109 63.0909 144.757 62.9953 144.481 62.804C144.204 62.6108 144.027 62.3324 143.95 61.9688L144.435 61.8494C144.498 62.1089 144.62 62.3049 144.802 62.4375C144.986 62.5701 145.227 62.6364 145.526 62.6364C145.862 62.6364 146.129 62.5616 146.33 62.4119C146.531 62.2604 146.631 62.071 146.631 61.8438C146.631 61.6676 146.573 61.5199 146.455 61.4006C146.338 61.2794 146.16 61.1903 145.921 61.1335L145.208 60.9631C144.829 60.8722 144.549 60.7282 144.367 60.5312C144.185 60.3343 144.094 60.09 144.094 59.7983C144.094 59.5578 144.16 59.3466 144.29 59.1648C144.421 58.9811 144.601 58.8371 144.83 58.733C145.059 58.6288 145.321 58.5767 145.614 58.5767C146.014 58.5767 146.333 58.6676 146.572 58.8494C146.812 59.0294 146.986 59.2775 147.092 59.5938ZM151.017 57.1818V63H150.511V57.1818H151.017ZM154.051 63.0909C153.674 63.0909 153.341 62.9953 153.051 62.804C152.763 62.6127 152.538 62.3485 152.375 62.0114C152.212 61.6723 152.131 61.2812 152.131 60.8381C152.131 60.3911 152.212 59.9981 152.375 59.6591C152.538 59.3182 152.763 59.053 153.051 58.8636C153.341 58.6723 153.674 58.5767 154.051 58.5767C154.428 58.5767 154.76 58.6723 155.048 58.8636C155.336 59.0549 155.562 59.3201 155.724 59.6591C155.889 59.9981 155.972 60.3911 155.972 60.8381C155.972 61.2812 155.89 61.6723 155.727 62.0114C155.564 62.3485 155.338 62.6127 155.048 62.804C154.76 62.9953 154.428 63.0909 154.051 63.0909ZM154.051 62.6278C154.354 62.6278 154.611 62.5464 154.821 62.3835C155.031 62.2206 155.19 62.0038 155.298 61.733C155.408 61.4621 155.463 61.1638 155.463 60.8381C155.463 60.5123 155.408 60.2131 155.298 59.9403C155.19 59.6676 155.031 59.4489 154.821 59.2841C154.611 59.1193 154.354 59.0369 154.051 59.0369C153.75 59.0369 153.493 59.1193 153.281 59.2841C153.071 59.4489 152.911 59.6676 152.801 59.9403C152.693 60.2131 152.639 60.5123 152.639 60.8381C152.639 61.1638 152.693 61.4621 152.801 61.733C152.911 62.0038 153.071 62.2206 153.281 62.3835C153.491 62.5464 153.748 62.6278 154.051 62.6278ZM160.013 59.5938L159.55 59.7244C159.505 59.5937 159.441 59.4754 159.357 59.3693C159.274 59.2633 159.165 59.179 159.031 59.1165C158.898 59.054 158.733 59.0227 158.536 59.0227C158.241 59.0227 157.998 59.0928 157.809 59.233C157.62 59.3731 157.525 59.554 157.525 59.7756C157.525 59.9631 157.589 60.1155 157.718 60.233C157.849 60.3485 158.049 60.4403 158.32 60.5085L158.979 60.6705C159.345 60.7595 159.619 60.9006 159.8 61.0938C159.984 61.2869 160.076 61.5294 160.076 61.821C160.076 62.0672 160.008 62.286 159.871 62.4773C159.735 62.6686 159.545 62.8191 159.3 62.929C159.058 63.0369 158.777 63.0909 158.457 63.0909C158.031 63.0909 157.679 62.9953 157.403 62.804C157.126 62.6108 156.949 62.3324 156.871 61.9688L157.357 61.8494C157.42 62.1089 157.542 62.3049 157.724 62.4375C157.907 62.5701 158.149 62.6364 158.448 62.6364C158.783 62.6364 159.051 62.5616 159.252 62.4119C159.453 62.2604 159.553 62.071 159.553 61.8438C159.553 61.6676 159.495 61.5199 159.377 61.4006C159.26 61.2794 159.082 61.1903 158.843 61.1335L158.13 60.9631C157.751 60.8722 157.471 60.7282 157.289 60.5312C157.107 60.3343 157.016 60.09 157.016 59.7983C157.016 59.5578 157.082 59.3466 157.212 59.1648C157.343 58.9811 157.523 58.8371 157.752 58.733C157.981 58.6288 158.243 58.5767 158.536 58.5767C158.936 58.5767 159.255 58.6676 159.494 58.8494C159.734 59.0294 159.907 59.2775 160.013 59.5938ZM165.004 63.0909C164.646 63.0909 164.333 62.9962 164.064 62.8068C163.795 62.6174 163.585 62.3532 163.433 62.0142C163.284 61.6752 163.209 61.2803 163.209 60.8295C163.209 60.3807 163.284 59.9877 163.433 59.6506C163.585 59.3116 163.796 59.0483 164.067 58.8608C164.338 58.6714 164.653 58.5767 165.013 58.5767C165.278 58.5767 165.499 58.6241 165.675 58.7188C165.851 58.8116 165.992 58.9271 166.098 59.0653C166.204 59.2036 166.286 59.3381 166.345 59.4688H166.391V57.1818H166.899V63H166.405V62.1903H166.345C166.286 62.3229 166.203 62.4593 166.095 62.5994C165.987 62.7377 165.844 62.8542 165.666 62.9489C165.49 63.0436 165.269 63.0909 165.004 63.0909ZM165.064 62.6278C165.346 62.6278 165.587 62.5511 165.786 62.3977C165.984 62.2424 166.136 62.0294 166.24 61.7585C166.346 61.4858 166.399 61.1733 166.399 60.821C166.399 60.4725 166.347 60.1648 166.243 59.8977C166.139 59.6288 165.987 59.4186 165.788 59.267C165.589 59.1136 165.348 59.0369 165.064 59.0369C164.772 59.0369 164.526 59.1165 164.325 59.2756C164.126 59.4328 163.975 59.6458 163.871 59.9148C163.768 60.1837 163.717 60.4858 163.717 60.821C163.717 61.16 163.769 61.4659 163.874 61.7386C163.978 62.0114 164.129 62.2282 164.328 62.3892C164.529 62.5483 164.774 62.6278 165.064 62.6278ZM170.104 63.0909C169.696 63.0909 169.344 62.9962 169.047 62.8068C168.75 62.6155 168.519 62.3513 168.357 62.0142C168.196 61.6752 168.115 61.285 168.115 60.8438C168.115 60.4044 168.196 60.0142 168.357 59.6733C168.519 59.3305 168.744 59.0625 169.03 58.8693C169.318 58.6742 169.65 58.5767 170.027 58.5767C170.264 58.5767 170.492 58.6203 170.712 58.7074C170.931 58.7926 171.128 58.9242 171.303 59.1023C171.479 59.2784 171.618 59.5009 171.72 59.7699C171.822 60.0369 171.874 60.3532 171.874 60.7188V60.9688H168.464V60.5227H171.357C171.357 60.2424 171.3 59.9905 171.186 59.767C171.074 59.5417 170.918 59.3636 170.717 59.233C170.518 59.1023 170.288 59.0369 170.027 59.0369C169.75 59.0369 169.507 59.1108 169.297 59.2585C169.087 59.4062 168.922 59.6013 168.803 59.8438C168.685 60.0862 168.625 60.3513 168.624 60.6392V60.9062C168.624 61.2528 168.683 61.5559 168.803 61.8153C168.924 62.0729 169.095 62.2727 169.317 62.4148C169.538 62.5568 169.801 62.6278 170.104 62.6278C170.31 62.6278 170.491 62.5956 170.646 62.5312C170.804 62.4669 170.935 62.3807 171.041 62.2727C171.149 62.1629 171.231 62.0426 171.286 61.9119L171.766 62.0682C171.699 62.2519 171.59 62.4214 171.439 62.5767C171.289 62.732 171.102 62.857 170.876 62.9517C170.653 63.0445 170.395 63.0909 170.104 63.0909ZM172.988 63V58.6364H173.479V59.3068H173.516C173.603 59.0871 173.755 58.91 173.971 58.7756C174.189 58.6392 174.435 58.571 174.71 58.571C174.751 58.571 174.798 58.572 174.849 58.5739C174.9 58.5758 174.942 58.5777 174.977 58.5795V59.0938C174.954 59.09 174.914 59.0843 174.857 59.0767C174.8 59.0691 174.739 59.0653 174.673 59.0653C174.445 59.0653 174.243 59.1136 174.065 59.2102C173.888 59.3049 173.749 59.4366 173.647 59.6051C173.545 59.7737 173.494 59.9659 173.494 60.1818V63H172.988ZM177.471 63.0909C177.064 63.0909 176.711 62.9962 176.414 62.8068C176.117 62.6155 175.887 62.3513 175.724 62.0142C175.563 61.6752 175.482 61.285 175.482 60.8438C175.482 60.4044 175.563 60.0142 175.724 59.6733C175.887 59.3305 176.111 59.0625 176.397 58.8693C176.685 58.6742 177.017 58.5767 177.394 58.5767C177.631 58.5767 177.859 58.6203 178.079 58.7074C178.299 58.7926 178.496 58.9242 178.67 59.1023C178.846 59.2784 178.985 59.5009 179.087 59.7699C179.19 60.0369 179.241 60.3532 179.241 60.7188V60.9688H175.832V60.5227H178.724C178.724 60.2424 178.667 59.9905 178.553 59.767C178.442 59.5417 178.285 59.3636 178.085 59.233C177.886 59.1023 177.656 59.0369 177.394 59.0369C177.118 59.0369 176.874 59.1108 176.664 59.2585C176.454 59.4062 176.289 59.6013 176.17 59.8438C176.052 60.0862 175.993 60.3513 175.991 60.6392V60.9062C175.991 61.2528 176.05 61.5559 176.17 61.8153C176.291 62.0729 176.462 62.2727 176.684 62.4148C176.906 62.5568 177.168 62.6278 177.471 62.6278C177.677 62.6278 177.858 62.5956 178.013 62.5312C178.171 62.4669 178.302 62.3807 178.408 62.2727C178.516 62.1629 178.598 62.0426 178.653 61.9119L179.133 62.0682C179.067 62.2519 178.958 62.4214 178.806 62.5767C178.656 62.732 178.469 62.857 178.244 62.9517C178.02 63.0445 177.763 63.0909 177.471 63.0909ZM182.06 63.0909C181.67 63.0909 181.33 62.9934 181.04 62.7983C180.752 62.6032 180.528 62.3362 180.369 61.9972C180.21 61.6581 180.131 61.2718 180.131 60.8381C180.131 60.4006 180.211 60.0114 180.372 59.6705C180.535 59.3295 180.76 59.0625 181.048 58.8693C181.336 58.6742 181.67 58.5767 182.051 58.5767C182.343 58.5767 182.607 58.6335 182.844 58.7472C183.08 58.8589 183.276 59.017 183.429 59.2216C183.584 59.4242 183.682 59.661 183.722 59.9318H183.21C183.157 59.6856 183.029 59.4754 182.827 59.3011C182.626 59.125 182.37 59.0369 182.06 59.0369C181.781 59.0369 181.535 59.1127 181.321 59.2642C181.107 59.4138 180.939 59.6231 180.818 59.892C180.699 60.1591 180.639 60.4687 180.639 60.821C180.639 61.1752 180.698 61.4886 180.815 61.7614C180.933 62.0322 181.098 62.2443 181.31 62.3977C181.524 62.5511 181.774 62.6278 182.06 62.6278C182.253 62.6278 182.429 62.5919 182.588 62.5199C182.749 62.446 182.884 62.3419 182.991 62.2074C183.101 62.0729 183.175 61.9129 183.213 61.7273H183.724C183.687 61.9905 183.593 62.2254 183.443 62.4318C183.295 62.6364 183.103 62.7973 182.866 62.9148C182.632 63.0322 182.363 63.0909 182.06 63.0909ZM185.314 60.2727V63H184.808V57.1818H185.314V59.321H185.359C185.462 59.0956 185.62 58.9157 185.834 58.7812C186.05 58.6468 186.322 58.5795 186.652 58.5795C186.947 58.5795 187.207 58.6402 187.43 58.7614C187.654 58.8826 187.828 59.0616 187.953 59.2983C188.078 59.535 188.141 59.8267 188.141 60.1733V63H187.632V60.2045C187.632 59.8447 187.532 59.5616 187.331 59.3551C187.132 59.1468 186.863 59.0426 186.524 59.0426C186.291 59.0426 186.084 59.0919 185.902 59.1903C185.72 59.2888 185.576 59.4309 185.47 59.6165C185.366 59.8002 185.314 60.0189 185.314 60.2727ZM191.168 63.0909C190.791 63.0909 190.458 62.9953 190.168 62.804C189.88 62.6127 189.655 62.3485 189.492 62.0114C189.329 61.6723 189.248 61.2812 189.248 60.8381C189.248 60.3911 189.329 59.9981 189.492 59.6591C189.655 59.3182 189.88 59.053 190.168 58.8636C190.458 58.6723 190.791 58.5767 191.168 58.5767C191.545 58.5767 191.878 58.6723 192.165 58.8636C192.453 59.0549 192.679 59.3201 192.842 59.6591C193.006 59.9981 193.089 60.3911 193.089 60.8381C193.089 61.2812 193.007 61.6723 192.844 62.0114C192.682 62.3485 192.455 62.6127 192.165 62.804C191.878 62.9953 191.545 63.0909 191.168 63.0909ZM191.168 62.6278C191.471 62.6278 191.728 62.5464 191.938 62.3835C192.148 62.2206 192.308 62.0038 192.415 61.733C192.525 61.4621 192.58 61.1638 192.58 60.8381C192.58 60.5123 192.525 60.2131 192.415 59.9403C192.308 59.6676 192.148 59.4489 191.938 59.2841C191.728 59.1193 191.471 59.0369 191.168 59.0369C190.867 59.0369 190.611 59.1193 190.398 59.2841C190.188 59.4489 190.028 59.6676 189.918 59.9403C189.81 60.2131 189.756 60.5123 189.756 60.8381C189.756 61.1638 189.81 61.4621 189.918 61.733C190.028 62.0038 190.188 62.2206 190.398 62.3835C190.609 62.5464 190.865 62.6278 191.168 62.6278ZM197.131 59.5938L196.668 59.7244C196.622 59.5937 196.558 59.4754 196.474 59.3693C196.391 59.2633 196.282 59.179 196.148 59.1165C196.015 59.054 195.85 59.0227 195.653 59.0227C195.358 59.0227 195.116 59.0928 194.926 59.233C194.737 59.3731 194.642 59.554 194.642 59.7756C194.642 59.9631 194.706 60.1155 194.835 60.233C194.966 60.3485 195.167 60.4403 195.438 60.5085L196.097 60.6705C196.462 60.7595 196.736 60.9006 196.918 61.0938C197.101 61.2869 197.193 61.5294 197.193 61.821C197.193 62.0672 197.125 62.286 196.989 62.4773C196.852 62.6686 196.662 62.8191 196.418 62.929C196.175 63.0369 195.894 63.0909 195.574 63.0909C195.148 63.0909 194.796 62.9953 194.52 62.804C194.243 62.6108 194.066 62.3324 193.989 61.9688L194.474 61.8494C194.537 62.1089 194.659 62.3049 194.841 62.4375C195.025 62.5701 195.266 62.6364 195.565 62.6364C195.901 62.6364 196.169 62.5616 196.369 62.4119C196.57 62.2604 196.67 62.071 196.67 61.8438C196.67 61.6676 196.612 61.5199 196.494 61.4006C196.377 61.2794 196.199 61.1903 195.96 61.1335L195.247 60.9631C194.868 60.8722 194.588 60.7282 194.406 60.5312C194.224 60.3343 194.134 60.09 194.134 59.7983C194.134 59.5578 194.199 59.3466 194.33 59.1648C194.46 58.9811 194.64 58.8371 194.869 58.733C195.098 58.6288 195.36 58.5767 195.653 58.5767C196.053 58.5767 196.372 58.6676 196.611 58.8494C196.851 59.0294 197.025 59.2775 197.131 59.5938ZM200.55 63V58.6364H201.042V59.3068H201.079C201.166 59.0871 201.317 58.91 201.533 58.7756C201.751 58.6392 201.997 58.571 202.272 58.571C202.314 58.571 202.36 58.572 202.411 58.5739C202.462 58.5758 202.505 58.5777 202.539 58.5795V59.0938C202.516 59.09 202.477 59.0843 202.42 59.0767C202.363 59.0691 202.301 59.0653 202.235 59.0653C202.008 59.0653 201.805 59.1136 201.627 59.2102C201.451 59.3049 201.312 59.4366 201.21 59.6051C201.107 59.7737 201.056 59.9659 201.056 60.1818V63H200.55ZM205.033 63.0909C204.626 63.0909 204.274 62.9962 203.977 62.8068C203.679 62.6155 203.449 62.3513 203.286 62.0142C203.125 61.6752 203.045 61.285 203.045 60.8438C203.045 60.4044 203.125 60.0142 203.286 59.6733C203.449 59.3305 203.674 59.0625 203.96 58.8693C204.247 58.6742 204.58 58.5767 204.957 58.5767C205.193 58.5767 205.422 58.6203 205.641 58.7074C205.861 58.7926 206.058 58.9242 206.232 59.1023C206.408 59.2784 206.548 59.5009 206.65 59.7699C206.752 60.0369 206.803 60.3532 206.803 60.7188V60.9688H203.394V60.5227H206.286C206.286 60.2424 206.229 59.9905 206.116 59.767C206.004 59.5417 205.848 59.3636 205.647 59.233C205.448 59.1023 205.218 59.0369 204.957 59.0369C204.68 59.0369 204.437 59.1108 204.227 59.2585C204.016 59.4062 203.852 59.6013 203.732 59.8438C203.615 60.0862 203.555 60.3513 203.553 60.6392V60.9062C203.553 61.2528 203.613 61.5559 203.732 61.8153C203.853 62.0729 204.025 62.2727 204.246 62.4148C204.468 62.5568 204.73 62.6278 205.033 62.6278C205.24 62.6278 205.421 62.5956 205.576 62.5312C205.733 62.4669 205.865 62.3807 205.971 62.2727C206.079 62.1629 206.16 62.0426 206.215 61.9119L206.695 62.0682C206.629 62.2519 206.52 62.4214 206.369 62.5767C206.219 62.732 206.031 62.857 205.806 62.9517C205.583 63.0445 205.325 63.0909 205.033 63.0909ZM210.849 59.5938L210.386 59.7244C210.341 59.5937 210.277 59.4754 210.193 59.3693C210.11 59.2633 210.001 59.179 209.866 59.1165C209.734 59.054 209.569 59.0227 209.372 59.0227C209.077 59.0227 208.834 59.0928 208.645 59.233C208.455 59.3731 208.361 59.554 208.361 59.7756C208.361 59.9631 208.425 60.1155 208.554 60.233C208.685 60.3485 208.885 60.4403 209.156 60.5085L209.815 60.6705C210.181 60.7595 210.455 60.9006 210.636 61.0938C210.82 61.2869 210.912 61.5294 210.912 61.821C210.912 62.0672 210.844 62.286 210.707 62.4773C210.571 62.6686 210.381 62.8191 210.136 62.929C209.894 63.0369 209.613 63.0909 209.293 63.0909C208.866 63.0909 208.515 62.9953 208.239 62.804C207.962 62.6108 207.785 62.3324 207.707 61.9688L208.193 61.8494C208.256 62.1089 208.378 62.3049 208.56 62.4375C208.743 62.5701 208.985 62.6364 209.284 62.6364C209.619 62.6364 209.887 62.5616 210.088 62.4119C210.289 62.2604 210.389 62.071 210.389 61.8438C210.389 61.6676 210.33 61.5199 210.213 61.4006C210.096 61.2794 209.918 61.1903 209.679 61.1335L208.966 60.9631C208.587 60.8722 208.307 60.7282 208.125 60.5312C207.943 60.3343 207.852 60.09 207.852 59.7983C207.852 59.5578 207.918 59.3466 208.048 59.1648C208.179 58.9811 208.359 58.8371 208.588 58.733C208.817 58.6288 209.079 58.5767 209.372 58.5767C209.772 58.5767 210.091 58.6676 210.33 58.8494C210.57 59.0294 210.743 59.2775 210.849 59.5938ZM213.783 63.0909C213.376 63.0909 213.024 62.9962 212.727 62.8068C212.429 62.6155 212.199 62.3513 212.036 62.0142C211.875 61.6752 211.795 61.285 211.795 60.8438C211.795 60.4044 211.875 60.0142 212.036 59.6733C212.199 59.3305 212.424 59.0625 212.71 58.8693C212.997 58.6742 213.33 58.5767 213.707 58.5767C213.943 58.5767 214.172 58.6203 214.391 58.7074C214.611 58.7926 214.808 58.9242 214.982 59.1023C215.158 59.2784 215.298 59.5009 215.4 59.7699C215.502 60.0369 215.553 60.3532 215.553 60.7188V60.9688H212.144V60.5227H215.036C215.036 60.2424 214.979 59.9905 214.866 59.767C214.754 59.5417 214.598 59.3636 214.397 59.233C214.198 59.1023 213.968 59.0369 213.707 59.0369C213.43 59.0369 213.187 59.1108 212.977 59.2585C212.766 59.4062 212.602 59.6013 212.482 59.8438C212.365 60.0862 212.305 60.3513 212.303 60.6392V60.9062C212.303 61.2528 212.363 61.5559 212.482 61.8153C212.603 62.0729 212.775 62.2727 212.996 62.4148C213.218 62.5568 213.48 62.6278 213.783 62.6278C213.99 62.6278 214.171 62.5956 214.326 62.5312C214.483 62.4669 214.615 62.3807 214.721 62.2727C214.829 62.1629 214.91 62.0426 214.965 61.9119L215.445 62.0682C215.379 62.2519 215.27 62.4214 215.119 62.5767C214.969 62.732 214.781 62.857 214.556 62.9517C214.333 63.0445 214.075 63.0909 213.783 63.0909ZM216.668 63V58.6364H217.159V59.3068H217.196C217.283 59.0871 217.435 58.91 217.651 58.7756C217.868 58.6392 218.115 58.571 218.389 58.571C218.431 58.571 218.477 58.572 218.528 58.5739C218.58 58.5758 218.622 58.5777 218.656 58.5795V59.0938C218.634 59.09 218.594 59.0843 218.537 59.0767C218.48 59.0691 218.419 59.0653 218.352 59.0653C218.125 59.0653 217.922 59.1136 217.744 59.2102C217.568 59.3049 217.429 59.4366 217.327 59.6051C217.224 59.7737 217.173 59.9659 217.173 60.1818V63H216.668ZM223.03 58.6364L221.436 63H220.896L219.303 58.6364H219.851L221.146 62.3324H221.186L222.482 58.6364H223.03ZM225.105 63.0994C224.842 63.0994 224.601 63.0483 224.384 62.946C224.166 62.8419 223.992 62.6922 223.864 62.4972C223.735 62.3002 223.67 62.0616 223.67 61.7812C223.67 61.5653 223.711 61.3835 223.793 61.2358C223.874 61.0881 223.99 60.9669 224.139 60.8722C224.289 60.7775 224.466 60.7027 224.67 60.6477C224.875 60.5928 225.1 60.5502 225.347 60.5199C225.591 60.4896 225.797 60.4631 225.966 60.4403C226.136 60.4176 226.266 60.3816 226.355 60.3324C226.444 60.2831 226.489 60.2036 226.489 60.0938V59.9915C226.489 59.6941 226.4 59.4602 226.222 59.2898C226.045 59.1174 225.792 59.0312 225.46 59.0312C225.146 59.0312 224.889 59.1004 224.69 59.2386C224.493 59.3769 224.355 59.5398 224.276 59.7273L223.795 59.554C223.894 59.3153 224.03 59.125 224.205 58.983C224.379 58.839 224.574 58.7358 224.79 58.6733C225.006 58.6089 225.224 58.5767 225.446 58.5767C225.613 58.5767 225.786 58.5985 225.966 58.642C226.148 58.6856 226.316 58.7614 226.472 58.8693C226.627 58.9754 226.753 59.1241 226.849 59.3153C226.946 59.5047 226.994 59.7453 226.994 60.0369V63H226.489V62.3097H226.457C226.397 62.4384 226.307 62.5634 226.188 62.6847C226.068 62.8059 225.919 62.9053 225.739 62.983C225.559 63.0606 225.348 63.0994 225.105 63.0994ZM225.173 62.6364C225.442 62.6364 225.675 62.5767 225.872 62.4574C226.069 62.3381 226.221 62.1799 226.327 61.983C226.435 61.7841 226.489 61.5653 226.489 61.3267V60.696C226.451 60.732 226.387 60.7642 226.298 60.7926C226.211 60.821 226.11 60.8466 225.994 60.8693C225.881 60.8902 225.767 60.9081 225.653 60.9233C225.54 60.9384 225.438 60.9517 225.347 60.9631C225.1 60.9934 224.89 61.0407 224.716 61.1051C224.542 61.1695 224.408 61.2585 224.315 61.3722C224.223 61.4839 224.176 61.6278 224.176 61.804C224.176 62.0691 224.271 62.2746 224.46 62.4205C224.65 62.5644 224.887 62.6364 225.173 62.6364ZM229.911 63.0909C229.553 63.0909 229.239 62.9962 228.97 62.8068C228.701 62.6174 228.491 62.3532 228.339 62.0142C228.19 61.6752 228.115 61.2803 228.115 60.8295C228.115 60.3807 228.19 59.9877 228.339 59.6506C228.491 59.3116 228.702 59.0483 228.973 58.8608C229.244 58.6714 229.559 58.5767 229.919 58.5767C230.184 58.5767 230.405 58.6241 230.581 58.7188C230.757 58.8116 230.898 58.9271 231.004 59.0653C231.11 59.2036 231.193 59.3381 231.251 59.4688H231.297V57.1818H231.805V63H231.311V62.1903H231.251C231.193 62.3229 231.109 62.4593 231.001 62.5994C230.893 62.7377 230.75 62.8542 230.572 62.9489C230.396 63.0436 230.176 63.0909 229.911 63.0909ZM229.97 62.6278C230.252 62.6278 230.493 62.5511 230.692 62.3977C230.891 62.2424 231.042 62.0294 231.146 61.7585C231.252 61.4858 231.305 61.1733 231.305 60.821C231.305 60.4725 231.253 60.1648 231.149 59.8977C231.045 59.6288 230.893 59.4186 230.695 59.267C230.496 59.1136 230.254 59.0369 229.97 59.0369C229.679 59.0369 229.432 59.1165 229.232 59.2756C229.033 59.4328 228.881 59.6458 228.777 59.9148C228.675 60.1837 228.624 60.4858 228.624 60.821C228.624 61.16 228.676 61.4659 228.78 61.7386C228.884 62.0114 229.036 62.2282 229.234 62.3892C229.435 62.5483 229.68 62.6278 229.97 62.6278ZM234.942 63.0909C234.565 63.0909 234.232 62.9953 233.942 62.804C233.654 62.6127 233.429 62.3485 233.266 62.0114C233.103 61.6723 233.021 61.2812 233.021 60.8381C233.021 60.3911 233.103 59.9981 233.266 59.6591C233.429 59.3182 233.654 59.053 233.942 58.8636C234.232 58.6723 234.565 58.5767 234.942 58.5767C235.319 58.5767 235.651 58.6723 235.939 58.8636C236.227 59.0549 236.452 59.3201 236.615 59.6591C236.78 59.9981 236.862 60.3911 236.862 60.8381C236.862 61.2812 236.781 61.6723 236.618 62.0114C236.455 62.3485 236.229 62.6127 235.939 62.804C235.651 62.9953 235.319 63.0909 234.942 63.0909ZM234.942 62.6278C235.245 62.6278 235.501 62.5464 235.712 62.3835C235.922 62.2206 236.081 62.0038 236.189 61.733C236.299 61.4621 236.354 61.1638 236.354 60.8381C236.354 60.5123 236.299 60.2131 236.189 59.9403C236.081 59.6676 235.922 59.4489 235.712 59.2841C235.501 59.1193 235.245 59.0369 234.942 59.0369C234.641 59.0369 234.384 59.1193 234.172 59.2841C233.962 59.4489 233.802 59.6676 233.692 59.9403C233.584 60.2131 233.53 60.5123 233.53 60.8381C233.53 61.1638 233.584 61.4621 233.692 61.733C233.802 62.0038 233.962 62.2206 234.172 62.3835C234.382 62.5464 234.639 62.6278 234.942 62.6278ZM240.904 59.5938L240.441 59.7244C240.396 59.5937 240.331 59.4754 240.248 59.3693C240.165 59.2633 240.056 59.179 239.921 59.1165C239.789 59.054 239.624 59.0227 239.427 59.0227C239.131 59.0227 238.889 59.0928 238.7 59.233C238.51 59.3731 238.415 59.554 238.415 59.7756C238.415 59.9631 238.48 60.1155 238.609 60.233C238.739 60.3485 238.94 60.4403 239.211 60.5085L239.87 60.6705C240.236 60.7595 240.509 60.9006 240.691 61.0938C240.875 61.2869 240.967 61.5294 240.967 61.821C240.967 62.0672 240.898 62.286 240.762 62.4773C240.626 62.6686 240.435 62.8191 240.191 62.929C239.949 63.0369 239.667 63.0909 239.347 63.0909C238.921 63.0909 238.57 62.9953 238.293 62.804C238.017 62.6108 237.84 62.3324 237.762 61.9688L238.248 61.8494C238.31 62.1089 238.433 62.3049 238.614 62.4375C238.798 62.5701 239.04 62.6364 239.339 62.6364C239.674 62.6364 239.942 62.5616 240.143 62.4119C240.344 62.2604 240.444 62.071 240.444 61.8438C240.444 61.6676 240.385 61.5199 240.268 61.4006C240.15 61.2794 239.972 61.1903 239.734 61.1335L239.021 60.9631C238.642 60.8722 238.362 60.7282 238.18 60.5312C237.998 60.3343 237.907 60.09 237.907 59.7983C237.907 59.5578 237.972 59.3466 238.103 59.1648C238.234 58.9811 238.414 58.8371 238.643 58.733C238.872 58.6288 239.133 58.5767 239.427 58.5767C239.826 58.5767 240.146 58.6676 240.384 58.8494C240.625 59.0294 240.798 59.2775 240.904 59.5938Z" fill="white"/>
</svg>
